<svg aria-hidden="true" style="position: absolute; width: 0px; height: 0px; overflow: hidden;" version="1.1" xmlns="http://www.w3.org/2000/svg" xmlns:xlink="http://www.w3.org/1999/xlink">
    <!-- a chat icon with a fixed grey color -->
    <symbol id="chat_grey" viewBox="0 0 2500 2500" >
        <path
           fill-rule="evenodd"
           clip-rule="evenodd"
           fill="grey"
           d="M449.69,0.75C348.15,8.88,254.94,46.87,174.88,112.76  c-14.08,11.59-50.12,47.63-61.72,61.72C46.65,255.3,9.05,348.16,1.08,451.32C0.37,460.52,0,560.29,0,742.27  c0.01,292.94-0.05,289.11,4.72,323.27c6.75,48.35,21.82,97.27,44.09,143.13c24.47,50.37,54.14,92.04,93.79,131.69  c70.69,70.69,159.48,117.47,256.91,135.37c26.47,4.86,66.69,8.27,97.78,8.27l10.65,0l0.28,169.94l0.28,169.94l2.67,8.45  c8.94,28.34,33.05,50.42,61.31,56.14c11.73,2.38,29.78,1.64,40.12-1.63c10.11-3.2,20.12-8.43,27.22-14.21  c3.3-2.69,103.14-91.23,221.85-196.76l215.84-191.87l214.64-0.01c213.98-0.01,241.95-0.4,269.81-3.7  c88.3-10.47,173.29-45.53,243.06-100.27c99.79-78.29,164.99-191.33,182.69-316.74c4.59-32.53,4.64-36.06,4.66-321.48  c0.02-271.54-0.13-284.2-3.7-313.85c-15.79-131.11-85.15-251.03-191.45-331.01c-9.77-7.35-37.84-26.08-46.84-31.25  c-22-12.65-43.31-22.88-68.18-32.74c-39.47-15.65-74.74-24.39-124.92-30.97c-13.27-1.74-44.08-1.85-555.35-1.97  C704.2-0.06,455.7,0.27,449.69,0.75 M464.07,163.08c-65.12,4.72-127.91,29.35-179.37,70.36c-14.68,11.7-39.16,36.18-50.86,50.86  c-37.87,47.52-60.39,101.13-69.08,164.47c-1.74,12.7-1.86,30.53-1.86,291.47c0,290.04-0.1,282.6,4.29,309.69  c6.35,39.1,22.81,82.67,44.27,117.2c17.35,27.91,49.13,63.53,74.56,83.57c45.8,36.09,99.45,58.82,158.97,67.38  c10.42,1.5,24.56,1.91,85.36,2.49c71.45,0.68,73.02,0.74,80.67,3.03c22.4,6.69,40.35,21.39,50.89,41.65  c8.46,16.27,7.83,5.75,8.43,141.29l0.53,120.9l159.79-142.07c87.88-78.14,162.36-144.13,165.51-146.66  c7.39-5.93,19.35-12.16,29.17-15.18l7.78-2.39l251.39-0.6c275.04-0.66,255.11-0.2,286.21-6.63c48.65-10.06,97.27-32.99,136.96-64.58  c13.81-10.99,39.54-36.83,50.86-51.06c36.37-45.73,59.79-100.23,67.76-157.71c0.91-6.58,2.1-21.11,2.65-32.27  c1.31-26.89,1.3-507.24-0.01-534.22c-1.38-28.43-4.76-50.21-11.56-74.42c-32.99-117.49-129.06-206.62-248.97-230.99  c-32.27-6.56,15.05-6.04-565.48-6.22C712.69,162.35,470.19,162.64,464.07,163.08 M2095.97,1221.09  c-24.48,5.53-46.92,24.5-57.02,48.22c-9.13,21.44-7.62,50.04,3.72,70.19c10.66,18.93,28.08,33.16,48.08,39.26  c8.05,2.45,9.83,2.57,50.5,3.26c43.41,0.74,48.8,1.21,66.88,5.82c30.43,7.75,55.69,22.14,78.26,44.57  c27.21,27.04,43.71,59.73,49.71,98.45c2.04,13.18,2.01,340.04-0.04,352.89c-6.17,38.76-22.42,71.14-49.11,97.82  c-25.89,25.89-55.95,41.42-94.18,48.66c-6.85,1.3-24.92,1.7-102.01,2.29c-92.88,0.71-93.75,0.73-101.34,3.03  c-26.48,8.02-47.18,29.11-55.49,56.49c-2.28,7.52-2.34,9.05-2.71,68.5l-0.38,60.8L1845.3,2136c-52-51.87-87.8-86.79-91.28-89.03  c-7.99-5.16-14.92-8.53-23.42-11.38l-7.29-2.45l-144.17-0.61c-153.69-0.65-148.32-0.47-168.67-5.64  c-59.79-15.2-108.46-63.84-123.97-123.9c-5.27-20.41-5.32-21.31-6.07-119.71c-0.79-103.16-0.28-96.29-8.27-112.44  c-5.1-10.32-13.98-21.02-23.38-28.17c-9.7-7.39-15.19-10.22-26.19-13.53c-12.88-3.87-32.24-4.13-44.68-0.6  c-28.36,8.05-50.59,30.9-57.94,59.57c-2.08,8.1-2.13,191.35-0.06,209.16c4.48,38.56,15.37,75.26,32.9,110.86  c46.03,93.5,132.7,160.21,234.64,180.62c28.67,5.74,23.31,5.54,159.42,5.94l126.48,0.37l144.17,143.97  c91.09,90.96,146.28,145.32,149.9,147.65c8.29,5.32,13.09,7.59,21.87,10.35c6.83,2.14,9.8,2.44,23.93,2.39  c14.62-0.05,16.91-0.32,24.46-2.84c30.29-10.11,51.61-36.38,55.65-68.56c0.69-5.51,1.08-49.3,1.08-120.74v-112.1l51.79-0.48  c54.28-0.5,60.09-0.92,85.59-6.06c51.75-10.43,101.33-33.66,143.16-67.06c14.27-11.4,40.1-37.14,51.35-51.17  c39.77-49.61,63.75-106.58,72.21-171.57c2.02-15.54,1.98-367.84-0.05-383.59c-8.23-63.93-31.82-120.16-71.44-170.28  c-10.54-13.33-38.73-41.52-52.07-52.07c-47.84-37.83-100.35-60.7-161.35-70.26c-13.16-2.06-19.27-2.32-62.98-2.62  C2112.69,1219.75,2100.86,1219.98,2095.97,1221.09"
           />
    </symbol>

    <!-- a chat icon with a fixed red color -->
    <symbol id="chat_red" viewBox="0 0 2500 2500" >
        <path
           fill-rule="evenodd"
           clip-rule="evenodd"
           fill="red"
           d="M449.69,0.75C348.15,8.88,254.94,46.87,174.88,112.76  c-14.08,11.59-50.12,47.63-61.72,61.72C46.65,255.3,9.05,348.16,1.08,451.32C0.37,460.52,0,560.29,0,742.27  c0.01,292.94-0.05,289.11,4.72,323.27c6.75,48.35,21.82,97.27,44.09,143.13c24.47,50.37,54.14,92.04,93.79,131.69  c70.69,70.69,159.48,117.47,256.91,135.37c26.47,4.86,66.69,8.27,97.78,8.27l10.65,0l0.28,169.94l0.28,169.94l2.67,8.45  c8.94,28.34,33.05,50.42,61.31,56.14c11.73,2.38,29.78,1.64,40.12-1.63c10.11-3.2,20.12-8.43,27.22-14.21  c3.3-2.69,103.14-91.23,221.85-196.76l215.84-191.87l214.64-0.01c213.98-0.01,241.95-0.4,269.81-3.7  c88.3-10.47,173.29-45.53,243.06-100.27c99.79-78.29,164.99-191.33,182.69-316.74c4.59-32.53,4.64-36.06,4.66-321.48  c0.02-271.54-0.13-284.2-3.7-313.85c-15.79-131.11-85.15-251.03-191.45-331.01c-9.77-7.35-37.84-26.08-46.84-31.25  c-22-12.65-43.31-22.88-68.18-32.74c-39.47-15.65-74.74-24.39-124.92-30.97c-13.27-1.74-44.08-1.85-555.35-1.97  C704.2-0.06,455.7,0.27,449.69,0.75 M464.07,163.08c-65.12,4.72-127.91,29.35-179.37,70.36c-14.68,11.7-39.16,36.18-50.86,50.86  c-37.87,47.52-60.39,101.13-69.08,164.47c-1.74,12.7-1.86,30.53-1.86,291.47c0,290.04-0.1,282.6,4.29,309.69  c6.35,39.1,22.81,82.67,44.27,117.2c17.35,27.91,49.13,63.53,74.56,83.57c45.8,36.09,99.45,58.82,158.97,67.38  c10.42,1.5,24.56,1.91,85.36,2.49c71.45,0.68,73.02,0.74,80.67,3.03c22.4,6.69,40.35,21.39,50.89,41.65  c8.46,16.27,7.83,5.75,8.43,141.29l0.53,120.9l159.79-142.07c87.88-78.14,162.36-144.13,165.51-146.66  c7.39-5.93,19.35-12.16,29.17-15.18l7.78-2.39l251.39-0.6c275.04-0.66,255.11-0.2,286.21-6.63c48.65-10.06,97.27-32.99,136.96-64.58  c13.81-10.99,39.54-36.83,50.86-51.06c36.37-45.73,59.79-100.23,67.76-157.71c0.91-6.58,2.1-21.11,2.65-32.27  c1.31-26.89,1.3-507.24-0.01-534.22c-1.38-28.43-4.76-50.21-11.56-74.42c-32.99-117.49-129.06-206.62-248.97-230.99  c-32.27-6.56,15.05-6.04-565.48-6.22C712.69,162.35,470.19,162.64,464.07,163.08 M2095.97,1221.09  c-24.48,5.53-46.92,24.5-57.02,48.22c-9.13,21.44-7.62,50.04,3.72,70.19c10.66,18.93,28.08,33.16,48.08,39.26  c8.05,2.45,9.83,2.57,50.5,3.26c43.41,0.74,48.8,1.21,66.88,5.82c30.43,7.75,55.69,22.14,78.26,44.57  c27.21,27.04,43.71,59.73,49.71,98.45c2.04,13.18,2.01,340.04-0.04,352.89c-6.17,38.76-22.42,71.14-49.11,97.82  c-25.89,25.89-55.95,41.42-94.18,48.66c-6.85,1.3-24.92,1.7-102.01,2.29c-92.88,0.71-93.75,0.73-101.34,3.03  c-26.48,8.02-47.18,29.11-55.49,56.49c-2.28,7.52-2.34,9.05-2.71,68.5l-0.38,60.8L1845.3,2136c-52-51.87-87.8-86.79-91.28-89.03  c-7.99-5.16-14.92-8.53-23.42-11.38l-7.29-2.45l-144.17-0.61c-153.69-0.65-148.32-0.47-168.67-5.64  c-59.79-15.2-108.46-63.84-123.97-123.9c-5.27-20.41-5.32-21.31-6.07-119.71c-0.79-103.16-0.28-96.29-8.27-112.44  c-5.1-10.32-13.98-21.02-23.38-28.17c-9.7-7.39-15.19-10.22-26.19-13.53c-12.88-3.87-32.24-4.13-44.68-0.6  c-28.36,8.05-50.59,30.9-57.94,59.57c-2.08,8.1-2.13,191.35-0.06,209.16c4.48,38.56,15.37,75.26,32.9,110.86  c46.03,93.5,132.7,160.21,234.64,180.62c28.67,5.74,23.31,5.54,159.42,5.94l126.48,0.37l144.17,143.97  c91.09,90.96,146.28,145.32,149.9,147.65c8.29,5.32,13.09,7.59,21.87,10.35c6.83,2.14,9.8,2.44,23.93,2.39  c14.62-0.05,16.91-0.32,24.46-2.84c30.29-10.11,51.61-36.38,55.65-68.56c0.69-5.51,1.08-49.3,1.08-120.74v-112.1l51.79-0.48  c54.28-0.5,60.09-0.92,85.59-6.06c51.75-10.43,101.33-33.66,143.16-67.06c14.27-11.4,40.1-37.14,51.35-51.17  c39.77-49.61,63.75-106.58,72.21-171.57c2.02-15.54,1.98-367.84-0.05-383.59c-8.23-63.93-31.82-120.16-71.44-170.28  c-10.54-13.33-38.73-41.52-52.07-52.07c-47.84-37.83-100.35-60.7-161.35-70.26c-13.16-2.06-19.27-2.32-62.98-2.62  C2112.69,1219.75,2100.86,1219.98,2095.97,1221.09"
           />
    </symbol>

    <!-- a chat icon with a fixed red color, which is used automatically when a src string 
         contains symbolId "chat_grey" and "statefulId:true;", which will append "_Over",
         for example, if the element containing the symbol is stateful -->
    <symbol id="chat_grey_Over" viewBox="0 0 2500 2500" >
        <path
           fill-rule="evenodd"
           clip-rule="evenodd"
           fill="red"
           d="M449.69,0.75C348.15,8.88,254.94,46.87,174.88,112.76  c-14.08,11.59-50.12,47.63-61.72,61.72C46.65,255.3,9.05,348.16,1.08,451.32C0.37,460.52,0,560.29,0,742.27  c0.01,292.94-0.05,289.11,4.72,323.27c6.75,48.35,21.82,97.27,44.09,143.13c24.47,50.37,54.14,92.04,93.79,131.69  c70.69,70.69,159.48,117.47,256.91,135.37c26.47,4.86,66.69,8.27,97.78,8.27l10.65,0l0.28,169.94l0.28,169.94l2.67,8.45  c8.94,28.34,33.05,50.42,61.31,56.14c11.73,2.38,29.78,1.64,40.12-1.63c10.11-3.2,20.12-8.43,27.22-14.21  c3.3-2.69,103.14-91.23,221.85-196.76l215.84-191.87l214.64-0.01c213.98-0.01,241.95-0.4,269.81-3.7  c88.3-10.47,173.29-45.53,243.06-100.27c99.79-78.29,164.99-191.33,182.69-316.74c4.59-32.53,4.64-36.06,4.66-321.48  c0.02-271.54-0.13-284.2-3.7-313.85c-15.79-131.11-85.15-251.03-191.45-331.01c-9.77-7.35-37.84-26.08-46.84-31.25  c-22-12.65-43.31-22.88-68.18-32.74c-39.47-15.65-74.74-24.39-124.92-30.97c-13.27-1.74-44.08-1.85-555.35-1.97  C704.2-0.06,455.7,0.27,449.69,0.75 M464.07,163.08c-65.12,4.72-127.91,29.35-179.37,70.36c-14.68,11.7-39.16,36.18-50.86,50.86  c-37.87,47.52-60.39,101.13-69.08,164.47c-1.74,12.7-1.86,30.53-1.86,291.47c0,290.04-0.1,282.6,4.29,309.69  c6.35,39.1,22.81,82.67,44.27,117.2c17.35,27.91,49.13,63.53,74.56,83.57c45.8,36.09,99.45,58.82,158.97,67.38  c10.42,1.5,24.56,1.91,85.36,2.49c71.45,0.68,73.02,0.74,80.67,3.03c22.4,6.69,40.35,21.39,50.89,41.65  c8.46,16.27,7.83,5.75,8.43,141.29l0.53,120.9l159.79-142.07c87.88-78.14,162.36-144.13,165.51-146.66  c7.39-5.93,19.35-12.16,29.17-15.18l7.78-2.39l251.39-0.6c275.04-0.66,255.11-0.2,286.21-6.63c48.65-10.06,97.27-32.99,136.96-64.58  c13.81-10.99,39.54-36.83,50.86-51.06c36.37-45.73,59.79-100.23,67.76-157.71c0.91-6.58,2.1-21.11,2.65-32.27  c1.31-26.89,1.3-507.24-0.01-534.22c-1.38-28.43-4.76-50.21-11.56-74.42c-32.99-117.49-129.06-206.62-248.97-230.99  c-32.27-6.56,15.05-6.04-565.48-6.22C712.69,162.35,470.19,162.64,464.07,163.08 M2095.97,1221.09  c-24.48,5.53-46.92,24.5-57.02,48.22c-9.13,21.44-7.62,50.04,3.72,70.19c10.66,18.93,28.08,33.16,48.08,39.26  c8.05,2.45,9.83,2.57,50.5,3.26c43.41,0.74,48.8,1.21,66.88,5.82c30.43,7.75,55.69,22.14,78.26,44.57  c27.21,27.04,43.71,59.73,49.71,98.45c2.04,13.18,2.01,340.04-0.04,352.89c-6.17,38.76-22.42,71.14-49.11,97.82  c-25.89,25.89-55.95,41.42-94.18,48.66c-6.85,1.3-24.92,1.7-102.01,2.29c-92.88,0.71-93.75,0.73-101.34,3.03  c-26.48,8.02-47.18,29.11-55.49,56.49c-2.28,7.52-2.34,9.05-2.71,68.5l-0.38,60.8L1845.3,2136c-52-51.87-87.8-86.79-91.28-89.03  c-7.99-5.16-14.92-8.53-23.42-11.38l-7.29-2.45l-144.17-0.61c-153.69-0.65-148.32-0.47-168.67-5.64  c-59.79-15.2-108.46-63.84-123.97-123.9c-5.27-20.41-5.32-21.31-6.07-119.71c-0.79-103.16-0.28-96.29-8.27-112.44  c-5.1-10.32-13.98-21.02-23.38-28.17c-9.7-7.39-15.19-10.22-26.19-13.53c-12.88-3.87-32.24-4.13-44.68-0.6  c-28.36,8.05-50.59,30.9-57.94,59.57c-2.08,8.1-2.13,191.35-0.06,209.16c4.48,38.56,15.37,75.26,32.9,110.86  c46.03,93.5,132.7,160.21,234.64,180.62c28.67,5.74,23.31,5.54,159.42,5.94l126.48,0.37l144.17,143.97  c91.09,90.96,146.28,145.32,149.9,147.65c8.29,5.32,13.09,7.59,21.87,10.35c6.83,2.14,9.8,2.44,23.93,2.39  c14.62-0.05,16.91-0.32,24.46-2.84c30.29-10.11,51.61-36.38,55.65-68.56c0.69-5.51,1.08-49.3,1.08-120.74v-112.1l51.79-0.48  c54.28-0.5,60.09-0.92,85.59-6.06c51.75-10.43,101.33-33.66,143.16-67.06c14.27-11.4,40.1-37.14,51.35-51.17  c39.77-49.61,63.75-106.58,72.21-171.57c2.02-15.54,1.98-367.84-0.05-383.59c-8.23-63.93-31.82-120.16-71.44-170.28  c-10.54-13.33-38.73-41.52-52.07-52.07c-47.84-37.83-100.35-60.7-161.35-70.26c-13.16-2.06-19.27-2.32-62.98-2.62  C2112.69,1219.75,2100.86,1219.98,2095.97,1221.09"
           />
    </symbol>


    <!-- This is the recommended approach - this symbol sets its "fill" to the special value 
        "currentColor", which means the graphics will inherit their color from the current 
        "color" attribute-value in the  CSS cascade - it can be set by the "color" attribute in 
        the src string, or inherited from a CSS class, either specified via "cssClas" in the 
        src string, or inherited from the element the symbol is displayed in -->
    <symbol id="chat" viewBox="0 0 2500 2500" >
        <path
           fill-rule="evenodd"
           clip-rule="evenodd"
           fill="currentColor"
           d="M449.69,0.75C348.15,8.88,254.94,46.87,174.88,112.76  c-14.08,11.59-50.12,47.63-61.72,61.72C46.65,255.3,9.05,348.16,1.08,451.32C0.37,460.52,0,560.29,0,742.27  c0.01,292.94-0.05,289.11,4.72,323.27c6.75,48.35,21.82,97.27,44.09,143.13c24.47,50.37,54.14,92.04,93.79,131.69  c70.69,70.69,159.48,117.47,256.91,135.37c26.47,4.86,66.69,8.27,97.78,8.27l10.65,0l0.28,169.94l0.28,169.94l2.67,8.45  c8.94,28.34,33.05,50.42,61.31,56.14c11.73,2.38,29.78,1.64,40.12-1.63c10.11-3.2,20.12-8.43,27.22-14.21  c3.3-2.69,103.14-91.23,221.85-196.76l215.84-191.87l214.64-0.01c213.98-0.01,241.95-0.4,269.81-3.7  c88.3-10.47,173.29-45.53,243.06-100.27c99.79-78.29,164.99-191.33,182.69-316.74c4.59-32.53,4.64-36.06,4.66-321.48  c0.02-271.54-0.13-284.2-3.7-313.85c-15.79-131.11-85.15-251.03-191.45-331.01c-9.77-7.35-37.84-26.08-46.84-31.25  c-22-12.65-43.31-22.88-68.18-32.74c-39.47-15.65-74.74-24.39-124.92-30.97c-13.27-1.74-44.08-1.85-555.35-1.97  C704.2-0.06,455.7,0.27,449.69,0.75 M464.07,163.08c-65.12,4.72-127.91,29.35-179.37,70.36c-14.68,11.7-39.16,36.18-50.86,50.86  c-37.87,47.52-60.39,101.13-69.08,164.47c-1.74,12.7-1.86,30.53-1.86,291.47c0,290.04-0.1,282.6,4.29,309.69  c6.35,39.1,22.81,82.67,44.27,117.2c17.35,27.91,49.13,63.53,74.56,83.57c45.8,36.09,99.45,58.82,158.97,67.38  c10.42,1.5,24.56,1.91,85.36,2.49c71.45,0.68,73.02,0.74,80.67,3.03c22.4,6.69,40.35,21.39,50.89,41.65  c8.46,16.27,7.83,5.75,8.43,141.29l0.53,120.9l159.79-142.07c87.88-78.14,162.36-144.13,165.51-146.66  c7.39-5.93,19.35-12.16,29.17-15.18l7.78-2.39l251.39-0.6c275.04-0.66,255.11-0.2,286.21-6.63c48.65-10.06,97.27-32.99,136.96-64.58  c13.81-10.99,39.54-36.83,50.86-51.06c36.37-45.73,59.79-100.23,67.76-157.71c0.91-6.58,2.1-21.11,2.65-32.27  c1.31-26.89,1.3-507.24-0.01-534.22c-1.38-28.43-4.76-50.21-11.56-74.42c-32.99-117.49-129.06-206.62-248.97-230.99  c-32.27-6.56,15.05-6.04-565.48-6.22C712.69,162.35,470.19,162.64,464.07,163.08 M2095.97,1221.09  c-24.48,5.53-46.92,24.5-57.02,48.22c-9.13,21.44-7.62,50.04,3.72,70.19c10.66,18.93,28.08,33.16,48.08,39.26  c8.05,2.45,9.83,2.57,50.5,3.26c43.41,0.74,48.8,1.21,66.88,5.82c30.43,7.75,55.69,22.14,78.26,44.57  c27.21,27.04,43.71,59.73,49.71,98.45c2.04,13.18,2.01,340.04-0.04,352.89c-6.17,38.76-22.42,71.14-49.11,97.82  c-25.89,25.89-55.95,41.42-94.18,48.66c-6.85,1.3-24.92,1.7-102.01,2.29c-92.88,0.71-93.75,0.73-101.34,3.03  c-26.48,8.02-47.18,29.11-55.49,56.49c-2.28,7.52-2.34,9.05-2.71,68.5l-0.38,60.8L1845.3,2136c-52-51.87-87.8-86.79-91.28-89.03  c-7.99-5.16-14.92-8.53-23.42-11.38l-7.29-2.45l-144.17-0.61c-153.69-0.65-148.32-0.47-168.67-5.64  c-59.79-15.2-108.46-63.84-123.97-123.9c-5.27-20.41-5.32-21.31-6.07-119.71c-0.79-103.16-0.28-96.29-8.27-112.44  c-5.1-10.32-13.98-21.02-23.38-28.17c-9.7-7.39-15.19-10.22-26.19-13.53c-12.88-3.87-32.24-4.13-44.68-0.6  c-28.36,8.05-50.59,30.9-57.94,59.57c-2.08,8.1-2.13,191.35-0.06,209.16c4.48,38.56,15.37,75.26,32.9,110.86  c46.03,93.5,132.7,160.21,234.64,180.62c28.67,5.74,23.31,5.54,159.42,5.94l126.48,0.37l144.17,143.97  c91.09,90.96,146.28,145.32,149.9,147.65c8.29,5.32,13.09,7.59,21.87,10.35c6.83,2.14,9.8,2.44,23.93,2.39  c14.62-0.05,16.91-0.32,24.46-2.84c30.29-10.11,51.61-36.38,55.65-68.56c0.69-5.51,1.08-49.3,1.08-120.74v-112.1l51.79-0.48  c54.28-0.5,60.09-0.92,85.59-6.06c51.75-10.43,101.33-33.66,143.16-67.06c14.27-11.4,40.1-37.14,51.35-51.17  c39.77-49.61,63.75-106.58,72.21-171.57c2.02-15.54,1.98-367.84-0.05-383.59c-8.23-63.93-31.82-120.16-71.44-170.28  c-10.54-13.33-38.73-41.52-52.07-52.07c-47.84-37.83-100.35-60.7-161.35-70.26c-13.16-2.06-19.27-2.32-62.98-2.62  C2112.69,1219.75,2100.86,1219.98,2095.97,1221.09"
           />
    </symbol>
</svg>
