<svg aria-hidden="true" style="position: absolute; width: 0px; height: 0px; overflow: hidden;" version="1.1" xmlns="http://www.w3.org/2000/svg" xmlns:xlink="http://www.w3.org/1999/xlink">

<symbol id="checkbox-checked_Error" viewBox="0 0 20 20">
<g id="container" transform="translate(2 2)">
	<path fill="#E54140" d="M3.45-0.18h9.09c2.01,0,3.64,1.63,3.64,3.64v9.09c0,2.01-1.63,3.64-3.64,3.64H3.45   c-2.01,0-3.64-1.63-3.64-3.64V3.45C-0.18,1.45,1.45-0.18,3.45-0.18z" id="path1" style="fill:#e54140;fill-opacity:0"></path>
	<path fill="none" stroke="#E54140" d="M3.45,0.27h9.09c1.76,0,3.18,1.42,3.18,3.18v9.09c0,1.76-1.42,3.18-3.18,3.18H3.45   c-1.76,0-3.18-1.42-3.18-3.18V3.45C0.27,1.7,1.7,0.27,3.45,0.27z" id="path2" style="fill:none;fill-opacity:0.73031026"></path>
</g>

<path style="color:#000000;fill:#e54140;stroke-linecap:round;stroke-linejoin:round;-inkscape-stroke:none;fill-opacity:1" d="m 14.376953,4.4726562 a 1,1 0 0 0 -0.65039,0.4042969 L 7.8925781,13.009766 6.15625,11.273438 a 1,1 0 0 0 -1.4140625,0 1,1 0 0 0 0,1.414062 L 7.3125,15.257813 a 1.0001,1.0001 0 0 0 1.5195313,-0.125 L 15.353516,6.0429687 A 1,1 0 0 0 15.123047,4.6464844 1,1 0 0 0 14.376953,4.4726562 Z" id="checkmark"></path>
</symbol>

<symbol id="checkbox-partial" viewBox="0 0 20 20">
<g id="container">
	<path style="fill:#ffffff;fill-opacity:0" d="M5.45,1.82h9.09c2.01,0,3.64,1.63,3.64,3.64v9.09c0,2.01-1.63,3.64-3.64,3.64H5.45
		c-2.01,0-3.64-1.63-3.64-3.64V5.45C1.82,3.45,3.45,1.82,5.45,1.82z"></path>
	<path fill="none" stroke="currentColor" d="M5.45,2.27h9.09c1.76,0,3.18,1.42,3.18,3.18v9.09c0,1.76-1.42,3.18-3.18,3.18H5.45
		c-1.76,0-3.18-1.42-3.18-3.18V5.45C2.27,3.7,3.7,2.27,5.45,2.27z"></path>
</g>
<path id="filler" fill="currentColor" d="M7.27,5.45h5.45c1,0,1.82,0.81,1.82,1.82v5.45c0,1-0.81,1.82-1.82,1.82H7.27
	c-1,0-1.82-0.81-1.82-1.82V7.27C5.45,6.27,6.27,5.45,7.27,5.45z"></path>
</symbol>

<symbol id="checkbox-checked_ErrorOver" viewBox="0 0 20 20" class="">
<path id="hoverBorder" d="M 4.5507812 0 C 2.0407838 -5.9211835e-16 0 2.0407838 0 4.5507812 L 0 15.449219 C -5.9211835e-16 17.959216 2.0407838 19.999766 4.5507812 20.009766 L 15.449219 20.009766 C 17.959216 20.009766 20 17.970935 20 15.460938 L 20 4.5507812 C 20 2.0407838 17.960935 0 15.460938 0 L 4.5507812 0 z M 5.5234375 1.7871094 L 14.484375 1.7871094 C 16.537723 1.7871094 18.212891 3.4638294 18.212891 5.5253906 L 18.212891 14.486328 C 18.212891 16.54789 16.538123 18.222656 14.476562 18.222656 L 5.5234375 18.222656 C 3.4618763 18.214443 1.7871094 16.538123 1.7871094 14.476562 L 1.7871094 5.5253906 C 1.7871094 3.4638294 3.4618763 1.7871094 5.5234375 1.7871094 z " style="fill:#e54140;fill-opacity:0.2"></path>
<g id="container" transform="translate(2 2)">
	<path fill="#E54140" d="M3.45-0.18h9.09c2.01,0,3.64,1.63,3.64,3.64v9.09c0,2.01-1.63,3.64-3.64,3.64H3.45   c-2.01,0-3.64-1.63-3.64-3.64V3.45C-0.18,1.45,1.45-0.18,3.45-0.18z" id="path1" style="fill:#e54140;fill-opacity:0"></path>
	<path fill="none" stroke="#E54140" d="M3.45,0.27h9.09c1.76,0,3.18,1.42,3.18,3.18v9.09c0,1.76-1.42,3.18-3.18,3.18H3.45   c-1.76,0-3.18-1.42-3.18-3.18V3.45C0.27,1.7,1.7,0.27,3.45,0.27z" id="path2"></path>
</g>
<path style="color:#000000;fill:#e54140;stroke-linecap:round;stroke-linejoin:round;-inkscape-stroke:none;fill-opacity:1" d="m 14.376953,4.4726562 a 1,1 0 0 0 -0.65039,0.4042969 L 7.8925781,13.009766 6.15625,11.273438 a 1,1 0 0 0 -1.4140625,0 1,1 0 0 0 0,1.414062 L 7.3125,15.257813 a 1.0001,1.0001 0 0 0 1.5195313,-0.125 L 15.353516,6.0429687 A 1,1 0 0 0 15.123047,4.6464844 1,1 0 0 0 14.376953,4.4726562 Z" id="checkmark"></path>
</symbol>

<symbol id="checkbox-partial_Error" viewBox="0 0 20 20" class="">
<g id="container">
	<path style="fill:#ffffff;fill-opacity:0" d="M5.45,1.82h9.09c2.01,0,3.64,1.63,3.64,3.64v9.09c0,2.01-1.63,3.64-3.64,3.64H5.45
		c-2.01,0-3.64-1.63-3.64-3.64V5.45C1.82,3.45,3.45,1.82,5.45,1.82z"></path>
	<path fill="none" stroke="#E5413F" d="M5.45,2.27h9.09c1.76,0,3.18,1.42,3.18,3.18v9.09c0,1.76-1.42,3.18-3.18,3.18H5.45
		c-1.76,0-3.18-1.42-3.18-3.18V5.45C2.27,3.7,3.7,2.27,5.45,2.27z"></path>
</g>
<path id="filler" fill="#E5413F" d="M7.27,5.45h5.45
	c1,0,1.82,0.81,1.82,1.82v5.45c0,1-0.81,1.82-1.82,1.82H7.27c-1,0-1.82-0.81-1.82-1.82V7.27C5.45,6.27,6.27,5.45,7.27,5.45z"></path>
</symbol>

<symbol id="checkbox-checked_Over" viewBox="0 0 20 20">
<path id="hoverBorder" style="opacity:0.3;fill:currentColor;fill-opacity:1" d="M 4.5507812 -0.005859375 C 2.0407838 -0.005859375 0 2.0349244 0 4.5449219 L 0 15.445312 C -5.9211835e-16 17.95531 2.0407838 19.995859 4.5507812 20.005859 L 15.449219 20.005859 C 17.959216 20.005859 20 17.965076 20 15.455078 L 20 4.5449219 C 20 2.0349244 17.960935 -0.005859375 15.460938 -0.005859375 L 4.5507812 -0.005859375 z M 5.5507812 1.8320312 L 14.457031 1.8320312 C 16.498206 1.8320312 18.164062 3.497537 18.164062 5.546875 L 18.164062 14.453125 C 18.164062 16.502463 16.498557 18.167969 14.449219 18.167969 L 5.5507812 18.167969 C 3.5014434 18.159805 1.8359375 16.49465 1.8359375 14.445312 L 1.8359375 5.546875 C 1.8359375 3.497537 3.5014434 1.8320313 5.5507812 1.8320312 z "></path>
<g id="container" transform="translate(2 2)">
	<path fill="currentColor" d="M3.45-0.18h9.09c2.01,0,3.64,1.63,3.64,3.64v9.09c0,2.01-1.63,3.64-3.64,3.64H3.45   c-2.01,0-3.64-1.63-3.64-3.64V3.45C-0.18,1.45,1.45-0.18,3.45-0.18z" id="path1" style="fill:currentColor;fill-opacity:0"></path>
	<path stroke="currentColor" d="m 3.45,0.27 h 9.09 c 1.026181,0 1.936777,0.4827376 2.517717,1.2341417 C 15.473146,2.0414684 15.72,2.7161812 15.72,3.45 v 9.09 c 0,1.76 -1.42,3.18 -3.18,3.18 H 3.45 C 1.69,15.72 0.27,14.3 0.27,12.54 V 3.45 C 0.27,1.7 1.7,0.27 3.45,0.27 Z" id="path2" style="fill:currentColor;fill-opacity:0;stroke:currentColor;stroke-opacity:1"></path>
</g>

<path style="fill:currentColor;stroke-linecap:round;stroke-linejoin:round;-inkscape-stroke:none;fill-opacity:1" d="m 14.376953,4.4726562 a 1,1 0 0 0 -0.65039,0.4042969 L 7.8925781,13.009766 6.15625,11.273438 a 1,1 0 0 0 -1.4140625,0 1,1 0 0 0 0,1.414062 L 7.3125,15.257813 a 1.0001,1.0001 0 0 0 1.5195313,-0.125 L 15.353516,6.0429687 A 1,1 0 0 0 15.123047,4.6464844 1,1 0 0 0 14.376953,4.4726562 Z" id="checkmark"></path>
</symbol>

<symbol id="checkbox-partial_ErrorOver" viewBox="0 0 20 20">
<path id="hoverBorder" d="M 4.5507812 0 C 2.0407838 -5.9211835e-16 0 2.0407838 0 4.5507812 L 0 15.449219 C -5.9211835e-16 17.959216 2.0407838 19.999766 4.5507812 20.009766 L 15.449219 20.009766 C 17.959216 20.009766 20 17.970935 20 15.460938 L 20 4.5507812 C 20 2.0407838 17.960935 0 15.460938 0 L 4.5507812 0 z M 5.5234375 1.7871094 L 14.484375 1.7871094 C 16.537946 1.7871094 18.214844 3.4616522 18.214844 5.5234375 L 18.214844 14.486328 C 18.214844 16.548114 16.538348 18.222656 14.476562 18.222656 L 5.5234375 18.222656 C 3.4616522 18.214441 1.7851563 16.540302 1.7851562 14.478516 L 1.7851562 5.5234375 C 1.7851562 3.4616522 3.4616522 1.7871094 5.5234375 1.7871094 z " style="fill:#e54140;fill-opacity:0.30000001"></path>
<g id="container">
	<path style="fill:#ffffff;fill-opacity:0" d="M5.45,1.82h9.09c2.01,0,3.64,1.63,3.64,3.64v9.09c0,2.01-1.63,3.64-3.64,3.64H5.45   c-2.01,0-3.64-1.63-3.64-3.64V5.45C1.82,3.45,3.45,1.82,5.45,1.82z" id="path1"></path>
	<path fill="none" stroke="#E5413F" d="M5.45,2.27h9.09c1.76,0,3.18,1.42,3.18,3.18v9.09c0,1.76-1.42,3.18-3.18,3.18H5.45   c-1.76,0-3.18-1.42-3.18-3.18V5.45C2.27,3.7,3.7,2.27,5.45,2.27z" id="path2"></path>
</g>
<path id="filler" fill="#E5413F" d="M7.27,5.45h5.45  c1,0,1.82,0.81,1.82,1.82v5.45c0,1-0.81,1.82-1.82,1.82H7.27c-1,0-1.82-0.81-1.82-1.82V7.27C5.45,6.27,6.27,5.45,7.27,5.45z"></path>
</symbol>

<symbol id="checkbox-unchecked_Error" viewBox="0 0 20 20">
<g id="container">
	<path style="fill:#ffffff;fill-opacity:0" d="M5.45,1.82h9.09c2.01,0,3.64,1.63,3.64,3.64v9.09c0,2.01-1.63,3.64-3.64,3.64H5.45
		c-2.01,0-3.64-1.63-3.64-3.64V5.45C1.82,3.45,3.45,1.82,5.45,1.82z"></path>
	<path fill="none" stroke="#E5413F" d="M5.45,2.27h9.09c1.76,0,3.18,1.42,3.18,3.18v9.09c0,1.76-1.42,3.18-3.18,3.18H5.45
		c-1.76,0-3.18-1.42-3.18-3.18V5.45C2.27,3.7,3.7,2.27,5.45,2.27z"></path>
</g>
</symbol>

<symbol id="checkbox-unchecked" viewBox="0 0 20 20">
<g id="container" transform="translate(2 2)">
	<path style="fill:#ffffff;fill-opacity:0" d="M3.45-0.18h9.09c2.01,0,3.64,1.63,3.64,3.64v9.09c0,2.01-1.63,3.64-3.64,3.64H3.45
		c-2.01,0-3.64-1.63-3.64-3.64V3.45C-0.18,1.45,1.45-0.18,3.45-0.18z"></path>
	<path fill="none" stroke="#999999" d="M3.45,0.27h9.09c1.76,0,3.18,1.42,3.18,3.18v9.09c0,1.76-1.42,3.18-3.18,3.18H3.45
		c-1.76,0-3.18-1.42-3.18-3.18V3.45C0.27,1.7,1.7,0.27,3.45,0.27z"></path>
</g>
</symbol>

<symbol id="checkbox-partial_Disabled" viewBox="0 0 20 20">
<g id="container">
	<path style="fill:#FAFAFA;fill-opacity:0;" d="M5.45,1.83h9.09c2.01,0,3.64,1.63,3.64,3.64v9.09c0,2.01-1.63,3.64-3.64,3.64H5.45
		c-2.01,0-3.64-1.63-3.64-3.64V5.46C1.82,3.45,3.45,1.83,5.45,1.83z"></path>
	<path fill="none" stroke="#E0E0E0" d="M5.45,2.28h9.09c1.76,0,3.18,1.42,3.18,3.18v9.09c0,1.76-1.42,3.18-3.18,3.18H5.45
		c-1.76,0-3.18-1.42-3.18-3.18V5.46C2.27,3.7,3.7,2.28,5.45,2.28z"></path>
</g>
<path id="filler" fill="#E0E0E0" d="M7.27,5.46h5.45
	c1,0,1.82,0.81,1.82,1.82v5.45c0,1-0.81,1.82-1.82,1.82H7.27c-1,0-1.82-0.81-1.82-1.82V7.28C5.45,6.28,6.27,5.46,7.27,5.46z"></path>
</symbol>

<symbol id="checkbox-partial_Over" viewBox="0 0 20 20">
<path id="hover_border" style="opacity:0.3;fill:currentColor" d="M 4.5507812 -0.005859375 C 2.0407838 -0.005859375 0 2.0349244 0 4.5449219 L 0 15.445312 C -5.9211835e-16 17.95531 2.0407838 19.995859 4.5507812 20.005859 L 15.449219 20.005859 C 17.959216 20.005859 20 17.965076 20 15.455078 L 20 4.5449219 C 20 2.0349244 17.960935 -0.005859375 15.460938 -0.005859375 L 4.5507812 -0.005859375 z M 5.5371094 1.8066406 L 14.470703 1.8066406 C 16.518074 1.8066406 18.189453 3.477643 18.189453 5.5332031 L 18.189453 14.466797 C 18.189453 16.522357 16.518451 18.193359 14.462891 18.193359 L 5.5371094 18.193359 C 3.4815492 18.185169 1.8105469 16.514544 1.8105469 14.458984 L 1.8105469 5.5332031 C 1.8105469 3.477643 3.4815492 1.8066406 5.5371094 1.8066406 z "></path>
<g id="container">
	<path d="M5.45,1.82h9.09c2.01,0,3.64,1.63,3.64,3.64v9.09c0,2.01-1.63,3.64-3.64,3.64H5.45   c-2.01,0-3.64-1.63-3.64-3.64V5.45C1.82,3.45,3.45,1.82,5.45,1.82z" id="path1" style="fill:#ffffff;fill-opacity:0"></path>
	<path fill="none" stroke="currentColor" d="M5.45,2.27h9.09c1.76,0,3.18,1.42,3.18,3.18v9.09c0,1.76-1.42,3.18-3.18,3.18H5.45   c-1.76,0-3.18-1.42-3.18-3.18V5.45C2.27,3.7,3.7,2.27,5.45,2.27z" id="path2"></path>
</g>
<path id="filler" fill="currentColor" d="M7.27,5.45h5.45c1,0,1.82,0.81,1.82,1.82v5.45c0,1-0.81,1.82-1.82,1.82H7.27  c-1,0-1.82-0.81-1.82-1.82V7.27C5.45,6.27,6.27,5.45,7.27,5.45z"></path>
</symbol>

<symbol id="checkbox-checked" viewBox="0 0 20 20">
<g id="container" transform="translate(2 2)">
	<path fill="currentColor" d="M3.45-0.18h9.09c2.01,0,3.64,1.63,3.64,3.64v9.09c0,2.01-1.63,3.64-3.64,3.64H3.45   c-2.01,0-3.64-1.63-3.64-3.64V3.45C-0.18,1.45,1.45-0.18,3.45-0.18z" id="path1" style="fill:#ffffff;fill-opacity:0"></path>
	<path fill="none" stroke="currentColor" d="M3.45,0.27h9.09c1.76,0,3.18,1.42,3.18,3.18v9.09c0,1.76-1.42,3.18-3.18,3.18H3.45   c-1.76,0-3.18-1.42-3.18-3.18V3.45C0.27,1.7,1.7,0.27,3.45,0.27z" id="path2" style="fill:currentColor;fill-opacity:0"></path>
</g>
<g id="checkmark"><path style="fill:currentColor;stroke-linecap:round;stroke-linejoin:round;-inkscape-stroke:none;fill-opacity:0" d="M 14.54,5.46 8.02,14.55 5.45,11.98" id="path7"></path><path style="fill:currentColor;stroke-linecap:round;stroke-linejoin:round;-inkscape-stroke:none;fill-opacity:1" d="m 14.376953,4.4726562 a 1,1 0 0 0 -0.65039,0.4042969 L 7.8925781,13.009766 6.15625,11.273438 a 1,1 0 0 0 -1.4140625,0 1,1 0 0 0 0,1.414062 L 7.3125,15.257813 a 1.0001,1.0001 0 0 0 1.5195313,-0.125 L 15.353516,6.0429687 A 1,1 0 0 0 15.123047,4.6464844 1,1 0 0 0 14.376953,4.4726562 Z" id="path8"></path>
</g>
</symbol>

<symbol id="checkbox-unchecked_Disabled" viewBox="0 0 20 20">
<g id="container" transform="translate(2 2)">
	<path style="fill:#FAFAFA;fill-opacity:0;" d="M3.45-0.18h9.09c2.01,0,3.64,1.63,3.64,3.64v9.09c0,2.01-1.63,3.64-3.64,3.64H3.45
		c-2.01,0-3.64-1.63-3.64-3.64V3.45C-0.18,1.45,1.45-0.18,3.45-0.18z"></path>
	<path fill="none" stroke="#E0E0E0" d="M3.45,0.27h9.09c1.76,0,3.18,1.42,3.18,3.18v9.09c0,1.76-1.42,3.18-3.18,3.18H3.45
		c-1.76,0-3.18-1.42-3.18-3.18V3.45C0.27,1.7,1.7,0.27,3.45,0.27z"></path>
</g>
</symbol>

<symbol id="checkbox-checked_Disabled" viewBox="0 0 20 20">
<g id="container" transform="translate(2 2)">
	<path style="fill:#FAFAFA;fill-opacity:0;" d="M3.45-0.15h9.09c2.01,0,3.64,1.63,3.64,3.64v9.09c0,2.01-1.63,3.64-3.64,3.64H3.45
		c-2.01,0-3.64-1.63-3.64-3.64V3.48C-0.18,1.47,1.45-0.15,3.45-0.15z"></path>
	<path fill="none" stroke="#E0E0E0" d="M3.45,0.3h9.09c1.76,0,3.18,1.42,3.18,3.18v9.09c0,1.76-1.42,3.18-3.18,3.18H3.45
		c-1.76,0-3.18-1.42-3.18-3.18V3.48C0.27,1.72,1.7,0.3,3.45,0.3z"></path>
</g>
<path id="checkmark" fill="none" stroke="#E0E0E0" stroke-width="2" stroke-linecap="round" stroke-linejoin="round" d="
	M14.54,5.48l-6.52,9.09L5.46,12"></path>
</symbol>

<symbol id="checkbox-unchecked_Over" viewBox="0 0 20 20">
<path id="focus" style="fill:currentColor;opacity:0.3;" d="M 4.5507812 0 C 2.0407838 -5.9211835e-16 0 2.0407838 0 4.5507812 L 0 15.449219 C -5.9211835e-16 17.959216 2.0407838 19.999766 4.5507812 20.009766 L 15.449219 20.009766 C 17.959216 20.009766 20 17.970935 20 15.460938 L 20 4.5507812 C 20 2.0407838 17.960935 0 15.460938 0 L 4.5507812 0 z M 5.5234375 1.7871094 L 14.484375 1.7871094 C 16.537723 1.7871094 18.212891 3.4638294 18.212891 5.5253906 L 18.212891 14.486328 C 18.212891 16.54789 16.538123 18.222656 14.476562 18.222656 L 5.5234375 18.222656 C 3.4618763 18.214443 1.7871094 16.538123 1.7871094 14.476562 L 1.7871094 5.5253906 C 1.7871094 3.4638294 3.4618763 1.7871094 5.5234375 1.7871094 z "></path>
<g id="container" transform="translate(2 2)">
	<path d="M3.46-0.18h9.09c2.01,0,3.64,1.63,3.64,3.64v9.09c0,2.01-1.63,3.64-3.64,3.64H3.46   c-2.01,0-3.64-1.63-3.64-3.64V3.45C-0.17,1.45,1.46-0.18,3.46-0.18z" id="path1" style="fill:#ffffff;fill-opacity:0"></path>
	<path fill="none" stroke="currentColor" d="M3.46,0.27h9.09c1.76,0,3.18,1.42,3.18,3.18v9.09c0,1.76-1.42,3.18-3.18,3.18H3.46   c-1.76,0-3.18-1.42-3.18-3.18V3.45C0.28,1.7,1.71,0.27,3.46,0.27z" id="path2"></path>
</g>
</symbol>

<symbol id="checkbox-unchecked_ErrorOver" viewBox="0 0 20 20">
<path id="hoverBorder" d="M 4.5507812 0 C 2.0407838 -5.9211835e-16 0 2.0407838 0 4.5507812 L 0 15.449219 C -5.9211835e-16 17.959216 2.0407838 19.999766 4.5507812 20.009766 L 15.449219 20.009766 C 17.959216 20.009766 20 17.970935 20 15.460938 L 20 4.5507812 C 20 2.0407838 17.960935 0 15.460938 0 L 4.5507812 0 z M 5.5097656 1.7617188 L 14.498047 1.7617188 C 16.557819 1.7617188 18.238281 3.4417551 18.238281 5.5097656 L 18.238281 14.5 C 18.238281 16.56801 16.558245 18.248047 14.490234 18.248047 L 5.5097656 18.248047 C 3.4417551 18.239808 1.7617187 16.558244 1.7617188 14.490234 L 1.7617188 5.5097656 C 1.7617188 3.4417551 3.4417551 1.7617187 5.5097656 1.7617188 z " style="fill:#e54140;fill-opacity:0.30000001"></path>
<g id="container" transform="translate(2 2)">
	<path style="fill:#ffffff;fill-opacity:0" d="M3.45-0.18h9.09c2.01,0,3.64,1.63,3.64,3.64v9.09c0,2.01-1.63,3.64-3.64,3.64H3.45   c-2.01,0-3.64-1.63-3.64-3.64V3.45C-0.18,1.45,1.45-0.18,3.45-0.18z" id="path1"></path>
	<path fill="none" stroke="#E54140" d="M3.45,0.27h9.09c1.76,0,3.18,1.42,3.18,3.18v9.09c0,1.76-1.42,3.18-3.18,3.18H3.45   c-1.76,0-3.18-1.42-3.18-3.18V3.45C0.27,1.7,1.7,0.27,3.45,0.27z" id="path2"></path>
</g>
</symbol>

</svg>