<svg aria-hidden="true" style="position: absolute; width: 0px; height: 0px; overflow: hidden;" version="1.1" xmlns="http://www.w3.org/2000/svg" xmlns:xlink="http://www.w3.org/1999/xlink">

        
<symbol id="radioButton-unchecked" viewBox="0 0 20 20" class="">
            <g id="RadioButton_Border_00000055666778448418521820000007819495886181649030_" transform="translate(2 2)">
	            <path style="fill:#FFFFFF;fill-opacity:0" d="M8-0.18L8-0.18c4.52,0,8.18,3.66,8.18,8.18l0,0c0,4.52-3.66,8.18-8.18,8.18l0,0
		            c-4.52,0-8.18-3.66-8.18-8.18l0,0C-0.18,3.48,3.48-0.18,8-0.18z"></path>
	            <path fill="none" stroke="#999999" d="M8,0.27L8,0.27c4.27,0,7.73,3.46,7.73,7.73l0,0c0,4.27-3.46,7.73-7.73,7.73l0,0
		            c-4.27,0-7.73-3.46-7.73-7.73l0,0C0.27,3.73,3.73,0.27,8,0.27z"></path>
            </g>
            <path id="RadioButton_Filling_00000057116658759699647880000005009987183866252704_" fill="none" d="M10,5.45L10,5.45
	            c2.51,0,4.55,2.04,4.55,4.55l0,0c0,2.51-2.04,4.55-4.55,4.55l0,0c-2.51,0-4.55-2.04-4.55-4.55l0,0C5.45,7.49,7.49,5.45,10,5.45z"></path>
        </symbol>


        
<symbol id="radioButton-unchecked_Disabled" viewBox="0 0 20 20" class="">
            <g id="RadioButton_Border_00000015317692083369635820000007770742084105478820_" transform="translate(2 2)">
	            <path style="fill:#F9F9F9;fill-opacity:0;" d="M8-0.18L8-0.18c4.52,0,8.18,3.66,8.18,8.18l0,0c0,4.52-3.66,8.18-8.18,8.18l0,0
		            c-4.52,0-8.18-3.66-8.18-8.18l0,0C-0.18,3.48,3.48-0.18,8-0.18z"></path>
	            <path fill="none" stroke="#E0E0E0" d="M8,0.27L8,0.27c4.27,0,7.73,3.46,7.73,7.73l0,0c0,4.27-3.46,7.73-7.73,7.73l0,0
		            c-4.27,0-7.73-3.46-7.73-7.73l0,0C0.27,3.73,3.73,0.27,8,0.27z"></path>
            </g>
            <path id="RadioButton_Filling_00000098207107915257509940000007765102551258668969_" fill="none" d="M10,5.45L10,5.45
	            c2.51,0,4.55,2.04,4.55,4.55l0,0c0,2.51-2.04,4.55-4.55,4.55l0,0c-2.51,0-4.55-2.04-4.55-4.55l0,0C5.45,7.49,7.49,5.45,10,5.45z"></path>
        </symbol>

        
<symbol id="radioButton-unchecked_Error" viewBox="0 0 20 20" class="">
            <g id="RadioButton_Border_00000005963597795337302940000004800555223255881144_" transform="translate(2 2)">
	            <path style="fill:#FFFFFF;fill-opacity:0" d="M8-0.18L8-0.18c4.52,0,8.18,3.66,8.18,8.18l0,0c0,4.52-3.66,8.18-8.18,8.18l0,0
		            c-4.52,0-8.18-3.66-8.18-8.18l0,0C-0.18,3.48,3.48-0.18,8-0.18z"></path>
	            <path fill="none" stroke="#E54140" d="M8,0.27L8,0.27c4.27,0,7.73,3.46,7.73,7.73l0,0c0,4.27-3.46,7.73-7.73,7.73l0,0
		            c-4.27,0-7.73-3.46-7.73-7.73l0,0C0.27,3.73,3.73,0.27,8,0.27z"></path>
            </g>
            <path id="RadioButton_Filling_00000176738934205916369930000012428297704114473364_" fill="none" d="M10,5.45L10,5.45
	            c2.51,0,4.55,2.04,4.55,4.55l0,0c0,2.51-2.04,4.55-4.55,4.55l0,0c-2.51,0-4.55-2.04-4.55-4.55l0,0C5.45,7.49,7.49,5.45,10,5.45z"></path>
        </symbol>

        
<symbol id="radioButton-checked" viewBox="0 0 20 20" class="">
            <g id="RadioButton_Border_00000033340558093647539970000010182659762914550691_" transform="translate(2 2)">
	            <path style="fill:#FFFFFF;fill-opacity:0" d="M8-0.18L8-0.18c4.52,0,8.18,3.66,8.18,8.18l0,0c0,4.52-3.66,8.18-8.18,8.18l0,0
		            c-4.52,0-8.18-3.66-8.18-8.18l0,0C-0.18,3.48,3.48-0.18,8-0.18z"></path>
	            <path fill="none" stroke="currentColor" d="M8,0.27L8,0.27c4.27,0,7.73,3.46,7.73,7.73l0,0c0,4.27-3.46,7.73-7.73,7.73l0,0
		            c-4.27,0-7.73-3.46-7.73-7.73l0,0C0.27,3.73,3.73,0.27,8,0.27z"></path>
            </g>
            <path id="RadioButton_Filling_00000073690544368616463290000002431490511075203477_" fill="currentColor" d="M10,5.45L10,5.45
	            c2.51,0,4.55,2.04,4.55,4.55l0,0c0,2.51-2.04,4.55-4.55,4.55l0,0c-2.51,0-4.55-2.04-4.55-4.55l0,0C5.45,7.49,7.49,5.45,10,5.45z"></path>

        </symbol>

        
<symbol id="radioButton-checked_Disabled" viewBox="0 0 20 20" class="">
            <g id="RadioButton_Border_00000173121088038847355060000009514825182541957775_" transform="translate(2 2)">
	            <path style="fill:#F9F9F9;fill-opacity:0;" d="M8-0.18L8-0.18c4.52,0,8.18,3.66,8.18,8.18l0,0c0,4.52-3.66,8.18-8.18,8.18l0,0
		            c-4.52,0-8.18-3.66-8.18-8.18l0,0C-0.18,3.48,3.48-0.18,8-0.18z"></path>
	            <path fill="none" stroke="#E0E0E0" d="M8,0.27L8,0.27c4.27,0,7.73,3.46,7.73,7.73l0,0c0,4.27-3.46,7.73-7.73,7.73l0,0
		            c-4.27,0-7.73-3.46-7.73-7.73l0,0C0.27,3.73,3.73,0.27,8,0.27z"></path>
            </g>
            <path id="RadioButton_Filling_00000021836669328808693370000007383300859057197981_" fill="#E0E0E0" d="M10,5.45L10,5.45
	            c2.51,0,4.55,2.04,4.55,4.55l0,0c0,2.51-2.04,4.55-4.55,4.55l0,0c-2.51,0-4.55-2.04-4.55-4.55l0,0C5.45,7.49,7.49,5.45,10,5.45z"></path>
        </symbol>

        
<symbol id="radioButton-checked_Error" viewBox="0 0 20 20" class="">
            <g id="RadioButton_Border_00000168112503012291666180000000748449310888753579_" transform="translate(2 2)">
	            <path style="fill:#FFFFFF;fill-opacity:0" d="M8-0.18L8-0.18c4.52,0,8.18,3.66,8.18,8.18l0,0c0,4.52-3.66,8.18-8.18,8.18l0,0
		            c-4.52,0-8.18-3.66-8.18-8.18l0,0C-0.18,3.48,3.48-0.18,8-0.18z"></path>
	            <path fill="none" stroke="#E5413F" d="M8,0.27L8,0.27c4.27,0,7.73,3.46,7.73,7.73l0,0c0,4.27-3.46,7.73-7.73,7.73l0,0
		            c-4.27,0-7.73-3.46-7.73-7.73l0,0C0.27,3.73,3.73,0.27,8,0.27z"></path>
            </g>
            <path id="RadioButton_Filling_00000033363666958666932970000001614761496844304556_" fill="#E5413F" d="M10,5.45L10,5.45
	            c2.51,0,4.55,2.04,4.55,4.55l0,0c0,2.51-2.04,4.55-4.55,4.55l0,0c-2.51,0-4.55-2.04-4.55-4.55l0,0C5.45,7.49,7.49,5.45,10,5.45z"></path>
        </symbol>


<symbol id="radioButton-unchecked_ErrorOver" viewBox="0 0 20 20" class="">
<path id="CheckboxHover_00000119815994201169991440000016759405512140566439_" d="M 10 0 C 4.4800055 0 0 4.4800055 0 10 C 0 15.519994 4.4800055 20 10 20 C 15.519994 20 20 15.519994 20 10 C 20 4.4800055 15.519994 0 10 0 z M 10 1.7871094 C 14.533792 1.7871094 18.212891 5.466208 18.212891 10 C 18.212891 14.533792 14.533792 18.212891 10 18.212891 C 5.466208 18.212891 1.7871094 14.533792 1.7871094 10 C 1.7871094 5.466208 5.466208 1.7871094 10 1.7871094 z " style="fill:#e54140;fill-opacity:0.2"></path>
  <g id="RadioButton_Border_00000100351400022223811920000001114643184361195154_" transform="translate(2 2)">
    <path style="fill:#FFFFFF;fill-opacity:0" d="M8-0.18L8-0.18c4.52,0,8.18,3.66,8.18,8.18l0,0c0,4.52-3.66,8.18-8.18,8.18l0,0               c-4.52,0-8.18-3.66-8.18-8.18l0,0C-0.18,3.48,3.48-0.18,8-0.18z" id="path1"></path>
    <path fill="none" stroke="#E54140" d="M8,0.27L8,0.27c4.27,0,7.73,3.46,7.73,7.73l0,0c0,4.27-3.46,7.73-7.73,7.73l0,0               c-4.27,0-7.73-3.46-7.73-7.73l0,0C0.27,3.73,3.73,0.27,8,0.27z" id="path2"></path>
  </g>
</symbol>

<symbol id="radioButton-checked_ErrorOver" viewBox="0 0 20 20" class="">
<path id="CheckboxHover_00000152232086502130949820000002050526494922893975_" d="M 10 0 C 4.4800055 0 0 4.4800055 0 10 C 0 15.519994 4.4800055 20 10 20 C 15.519994 20 20 15.519994 20 10 C 20 4.4800055 15.519994 0 10 0 z M 10 1.7871094 C 14.533792 1.7871094 18.212891 5.466208 18.212891 10 C 18.212891 14.533792 14.533792 18.212891 10 18.212891 C 5.466208 18.212891 1.7871094 14.533792 1.7871094 10 C 1.7871094 5.466208 5.466208 1.7871094 10 1.7871094 z " style="fill:#e5413f;fill-opacity:0.2"></path>
  <g id="RadioButton_Border_00000151509438101883379710000015725426493012569015_" transform="translate(2 2)">
    <path style="fill:#FFFFFF;fill-opacity:0" d="M8-0.18L8-0.18c4.52,0,8.18,3.66,8.18,8.18l0,0c0,4.52-3.66,8.18-8.18,8.18l0,0               c-4.52,0-8.18-3.66-8.18-8.18l0,0C-0.18,3.48,3.48-0.18,8-0.18z" id="path1"></path>
    <path fill="none" stroke="#E5413F" d="M8,0.27L8,0.27c4.27,0,7.73,3.46,7.73,7.73l0,0c0,4.27-3.46,7.73-7.73,7.73l0,0               c-4.27,0-7.73-3.46-7.73-7.73l0,0C0.27,3.73,3.73,0.27,8,0.27z" id="path2"></path>
  </g>
  <path id="RadioButton_Filling_00000088834526934672767020000010008217394131350456_" fill="#E5413F" d="M10,5.45L10,5.45              c2.51,0,4.55,2.04,4.55,4.55l0,0c0,2.51-2.04,4.55-4.55,4.55l0,0c-2.51,0-4.55-2.04-4.55-4.55l0,0C5.45,7.49,7.49,5.45,10,5.45z"></path>
</symbol>

<symbol id="radioButton-checked_ErrorDown" viewBox="0 0 20 20" class="">
<path id="CheckboxHover_00000152232086502130949820000002050526494922893975_" d="M 10 0 C 4.4800055 0 0 4.4800055 0 10 C 0 15.519994 4.4800055 20 10 20 C 15.519994 20 20 15.519994 20 10 C 20 4.4800055 15.519994 0 10 0 z M 10 1.7871094 C 14.533791 1.7871094 18.212891 5.4662079 18.212891 10 C 18.212891 14.533791 14.533791 18.212891 10 18.212891 C 5.4662079 18.212891 1.7871094 14.533791 1.7871094 10 C 1.7871094 5.4662079 5.4662079 1.7871094 10 1.7871094 z " style="fill:#e5413f;fill-opacity:0.2"></path>
  <g id="RadioButton_Border_00000151509438101883379710000015725426493012569015_" transform="translate(2 2)">
    <path style="fill:#FFFFFF;fill-opacity:0" d="M8-0.18L8-0.18c4.52,0,8.18,3.66,8.18,8.18l0,0c0,4.52-3.66,8.18-8.18,8.18l0,0               c-4.52,0-8.18-3.66-8.18-8.18l0,0C-0.18,3.48,3.48-0.18,8-0.18z" id="path1"></path>
    <path fill="none" stroke="#E5413F" d="M8,0.27L8,0.27c4.27,0,7.73,3.46,7.73,7.73l0,0c0,4.27-3.46,7.73-7.73,7.73l0,0               c-4.27,0-7.73-3.46-7.73-7.73l0,0C0.27,3.73,3.73,0.27,8,0.27z" id="path2"></path>
  </g>
  <path id="RadioButton_Filling_00000088834526934672767020000010008217394131350456_" fill="#E5413F" d="M10,5.45L10,5.45              c2.51,0,4.55,2.04,4.55,4.55l0,0c0,2.51-2.04,4.55-4.55,4.55l0,0c-2.51,0-4.55-2.04-4.55-4.55l0,0C5.45,7.49,7.49,5.45,10,5.45z"></path>
</symbol>

<symbol id="radioButton-checked_Over" viewBox="0 0 20 20" class="">
<path id="CheckboxHover_00000134238072187795741270000013920432245190902203_" style="fill:currentColor; opacity:0.3;" d="M 10 0 C 4.4800055 0 0 4.4800055 0 10 C 0 15.519994 4.4800055 20 10 20 C 15.519994 20 20 15.519994 20 10 C 20 4.4800055 15.519994 0 10 0 z M 10 1.8867188 C 14.479003 1.8867188 18.113281 5.5209971 18.113281 10 C 18.113281 14.479003 14.479003 18.113281 10 18.113281 C 5.5209971 18.113281 1.8867187 14.479003 1.8867188 10 C 1.8867188 5.5209971 5.5209971 1.8867187 10 1.8867188 z "></path>
  <g id="RadioButton_Border_00000166657588092472643500000006541224119883925419_" transform="translate(2 2)">
    <path style="fill:#FFFFFF;fill-opacity:0" d="M8-0.18L8-0.18c4.52,0,8.18,3.66,8.18,8.18l0,0c0,4.52-3.66,8.18-8.18,8.18l0,0               c-4.52,0-8.18-3.66-8.18-8.18l0,0C-0.18,3.48,3.48-0.18,8-0.18z" id="path1"></path>
    <path fill="none" stroke="currentColor" d="M8,0.27L8,0.27c4.27,0,7.73,3.46,7.73,7.73l0,0c0,4.27-3.46,7.73-7.73,7.73l0,0               c-4.27,0-7.73-3.46-7.73-7.73l0,0C0.27,3.73,3.73,0.27,8,0.27z" id="path2"></path>
  </g>
  <path id="RadioButton_Filling_00000166636767167617468450000016106717956208210077_" fill="currentColor" d="M10,5.45L10,5.45              c2.51,0,4.55,2.04,4.55,4.55l0,0c0,2.51-2.04,4.55-4.55,4.55l0,0c-2.51,0-4.55-2.04-4.55-4.55l0,0C5.45,7.49,7.49,5.45,10,5.45z"></path>
</symbol>

<symbol id="radioButton-checked_Down" viewBox="0 0 20 20" class="">
<path id="CheckboxHover_00000134238072187795741270000013920432245190902203_" style="fill:currentColor; opacity:0.3;" d="M 10 0 C 4.4800055 0 0 4.4800055 0 10 C 0 15.519994 4.4800055 20 10 20 C 15.519994 20 20 15.519994 20 10 C 20 4.4800055 15.519994 0 10 0 z M 10 1.9101562 C 14.465306 1.9101562 18.089844 5.5346943 18.089844 10 C 18.089844 14.465306 14.465306 18.089844 10 18.089844 C 5.5346943 18.089844 1.9101562 14.465306 1.9101562 10 C 1.9101562 5.5346943 5.5346943 1.9101562 10 1.9101562 z "></path>
  <g id="RadioButton_Border_00000166657588092472643500000006541224119883925419_" transform="translate(2 2)">
    <path style="fill:#FFFFFF;fill-opacity:0" d="M8-0.18L8-0.18c4.52,0,8.18,3.66,8.18,8.18l0,0c0,4.52-3.66,8.18-8.18,8.18l0,0               c-4.52,0-8.18-3.66-8.18-8.18l0,0C-0.18,3.48,3.48-0.18,8-0.18z" id="path1"></path>
    <path fill="none" stroke="currentColor" d="M8,0.27L8,0.27c4.27,0,7.73,3.46,7.73,7.73l0,0c0,4.27-3.46,7.73-7.73,7.73l0,0               c-4.27,0-7.73-3.46-7.73-7.73l0,0C0.27,3.73,3.73,0.27,8,0.27z" id="path2"></path>
  </g>
  <path id="RadioButton_Filling_00000166636767167617468450000016106717956208210077_" fill="currentColor" d="M10,5.45L10,5.45              c2.51,0,4.55,2.04,4.55,4.55l0,0c0,2.51-2.04,4.55-4.55,4.55l0,0c-2.51,0-4.55-2.04-4.55-4.55l0,0C5.45,7.49,7.49,5.45,10,5.45z"></path>
</symbol>

<symbol id="radioButton-unchecked_Down" viewBox="0 0 20 20" class="">
<path id="CheckboxHover" style="fill:currentColor; opacity:0.3;" d="M 10 0 C 4.4800055 0 0 4.4800055 0 10 C 0 15.519994 4.4800055 20 10 20 C 15.519994 20 20 15.519994 20 10 C 20 4.4800055 15.519994 0 10 0 z M 10 1.9609375 C 14.437912 1.9609375 18.039062 5.5620888 18.039062 10 C 18.039062 14.437912 14.437912 18.039062 10 18.039062 C 5.5620888 18.039062 1.9609375 14.437912 1.9609375 10 C 1.9609375 5.5620888 5.5620888 1.9609375 10 1.9609375 z "></path>
  <g id="RadioButton_Border" transform="translate(2 2)">
    <path style="fill:#FFFFFF;fill-opacity:0" d="M8-0.18L8-0.18c4.52,0,8.18,3.66,8.18,8.18l0,0c0,4.52-3.66,8.18-8.18,8.18l0,0               c-4.52,0-8.18-3.66-8.18-8.18l0,0C-0.18,3.48,3.48-0.18,8-0.18z" id="path1"></path>
    <path fill="none" stroke="currentColor" d="M8,0.27L8,0.27c4.27,0,7.73,3.46,7.73,7.73l0,0c0,4.27-3.46,7.73-7.73,7.73l0,0               c-4.27,0-7.73-3.46-7.73-7.73l0,0C0.27,3.73,3.73,0.27,8,0.27z" id="path2"></path>
  </g>
  <path id="RadioButton_Filling" fill="none" d="M10,5.45L10,5.45c2.51,0,4.55,2.04,4.55,4.55l0,0c0,2.51-2.04,4.55-4.55,4.55l0,0              c-2.51,0-4.55-2.04-4.55-4.55l0,0C5.45,7.49,7.49,5.45,10,5.45z"></path>
</symbol>

<symbol id="radioButton-unchecked_ErrorDown" viewBox="0 0 20 20" class="">
<path id="CheckboxHover_00000119815994201169991440000016759405512140566439_" d="M 10 0 C 4.4800055 0 0 4.4800055 0 10 C 0 15.519994 4.4800055 20 10 20 C 15.519994 20 20 15.519994 20 10 C 20 4.4800055 15.519994 0 10 0 z M 10 1.7871094 C 14.533792 1.7871094 18.212891 5.466208 18.212891 10 C 18.212891 14.533792 14.533792 18.212891 10 18.212891 C 5.466208 18.212891 1.7871094 14.533792 1.7871094 10 C 1.7871094 5.466208 5.466208 1.7871094 10 1.7871094 z " style="fill:#e54140;fill-opacity:0.2"></path>
  <g id="RadioButton_Border_00000100351400022223811920000001114643184361195154_" transform="translate(2 2)">
    <path style="fill:#FFFFFF;fill-opacity:0" d="M8-0.18L8-0.18c4.52,0,8.18,3.66,8.18,8.18l0,0c0,4.52-3.66,8.18-8.18,8.18l0,0               c-4.52,0-8.18-3.66-8.18-8.18l0,0C-0.18,3.48,3.48-0.18,8-0.18z" id="path1"></path>
    <path fill="none" stroke="#E54140" d="M8,0.27L8,0.27c4.27,0,7.73,3.46,7.73,7.73l0,0c0,4.27-3.46,7.73-7.73,7.73l0,0               c-4.27,0-7.73-3.46-7.73-7.73l0,0C0.27,3.73,3.73,0.27,8,0.27z" id="path2"></path>
  </g>
</symbol>

<symbol id="radioButton-unchecked_Over" viewBox="0 0 20 20" class="">
<path id="CheckboxHover" style="fill:currentColor; opacity:0.3;" d="M 10 0 C 4.4800055 0 0 4.4800055 0 10 C 0 15.519994 4.4800055 20 10 20 C 15.519994 20 20 15.519994 20 10 C 20 4.4800055 15.519994 0 10 0 z M 10 1.9609375 C 14.437912 1.9609375 18.039062 5.5620888 18.039062 10 C 18.039062 14.437912 14.437912 18.039062 10 18.039062 C 5.5620888 18.039062 1.9609375 14.437912 1.9609375 10 C 1.9609375 5.5620888 5.5620888 1.9609375 10 1.9609375 z "></path>
  <g id="RadioButton_Border" transform="translate(2 2)">
    <path style="fill:#FFFFFF;fill-opacity:0" d="M8-0.18L8-0.18c4.52,0,8.18,3.66,8.18,8.18l0,0c0,4.52-3.66,8.18-8.18,8.18l0,0               c-4.52,0-8.18-3.66-8.18-8.18l0,0C-0.18,3.48,3.48-0.18,8-0.18z" id="path1"></path>
    <path fill="none" stroke="currentColor" d="M8,0.27L8,0.27c4.27,0,7.73,3.46,7.73,7.73l0,0c0,4.27-3.46,7.73-7.73,7.73l0,0               c-4.27,0-7.73-3.46-7.73-7.73l0,0C0.27,3.73,3.73,0.27,8,0.27z" id="path2"></path>
  </g>
  <path id="RadioButton_Filling" fill="none" d="M10,5.45L10,5.45c2.51,0,4.55,2.04,4.55,4.55l0,0c0,2.51-2.04,4.55-4.55,4.55l0,0              c-2.51,0-4.55-2.04-4.55-4.55l0,0C5.45,7.49,7.49,5.45,10,5.45z"></path>
</symbol>

</svg>