<svg aria-hidden="true" style="position: absolute; width: 0px; height: 0px; overflow: hidden;" version="1.1" xmlns="http://www.w3.org/2000/svg" xmlns:xlink="http://www.w3.org/1999/xlink">

<symbol id="VoiceAssist" viewBox="0 0 512 512" fill="currentColor">
<g>
    <g>
      <path d="m439.5,236c0-11.3-9.1-20.4-20.4-20.4s-20.4,9.1-20.4,20.4c0,70-64,126.9-142.7,126.9-78.7,0-142.7-56.9-142.7-126.9 0-11.3-9.1-20.4-20.4-20.4s-20.4,9.1-20.4,20.4c0,86.2 71.5,157.4 163.1,166.7v57.5h-23.6c-11.3,0-20.4,9.1-20.4,20.4 0,11.3 9.1,20.4 20.4,20.4h88c11.3,0 20.4-9.1 20.4-20.4 0-11.3-9.1-20.4-20.4-20.4h-23.6v-57.5c91.6-9.3 163.1-80.5 163.1-166.7z"></path>
      <path d="m256,323.5c51,0 92.3-41.3 92.3-92.3v-127.9c0-51-41.3-92.3-92.3-92.3s-92.3,41.3-92.3,92.3v127.9c0,51 41.3,92.3 92.3,92.3zm-52.3-220.2c0-28.8 23.5-52.3 52.3-52.3s52.3,23.5 52.3,52.3v127.9c0,28.8-23.5,52.3-52.3,52.3s-52.3-23.5-52.3-52.3v-127.9z"></path>
    </g>
  </g>
</symbol>

<symbol id="Settings" viewBox="89 -880 782.24 800" fill="currentColor" >
<path d="M414-80q-11 0-19.5-7T384-105l-16-101q-19-7-40-19t-37-25l-93 43q-11 5-22 1.5T159-220L93-337q-6-10-3-21t12-18l86-63q-2-9-2.5-20.5T185-480q0-9 .5-20.5T188-521l-86-63q-9-7-12-18t3-21l66-117q6-11 17-14.5t22 1.5l93 43q16-13 37-25t40-18l16-102q2-11 10.5-18t19.5-7h132q11 0 19.5 7t10.5 18l16 101q19 7 40.5 18.5T669-710l93-43q11-5 22-1.5t17 14.5l66 116q6 10 3.5 21.5T858-584l-86 61q2 10 2.5 21.5t.5 21.5q0 10-.5 21t-2.5 21l86 62q9 7 12 18t-3 21l-66 117q-6 11-17 14.5t-22-1.5l-93-43q-16 13-36.5 25.5T592-206l-16 101q-2 11-10.5 18T546-80H414Zm22-60h88l14-112q33-8 62.5-25t53.5-41l106 46 40-72-94-69q4-17 6.5-33.5T715-480q0-17-2-33.5t-7-33.5l94-69-40-72-106 46q-23-26-52-43.5T538-708l-14-112h-88l-14 112q-34 7-63.5 24T306-642l-106-46-40 72 94 69q-4 17-6.5 33.5T245-480q0 17 2.5 33.5T254-413l-94 69 40 72 106-46q24 24 53.5 41t62.5 25l14 112Zm44-210q54 0 92-38t38-92q0-54-38-92t-92-38q-54 0-92 38t-38 92q0 54 38 92t92 38Zm0-130Z"></path>
</symbol>

</svg>
