<svg aria-hidden="true" style="position: absolute; width: 0px; height: 0px; overflow: hidden;" version="1.1" xmlns="http://www.w3.org/2000/svg" xmlns:xlink="http://www.w3.org/1999/xlink">

<symbol id="double_arrow_down" viewBox="262.96 -712.62 434.27 486.38" fill="currentColor">
<path d="m480-278.23 178.154-178.539q6.692-6.692 15.807-6.884 9.115-.193 16.192 6.884t7.077 16q0 8.923-7.077 15.999L500.231-234.847q-4.616 4.615-9.423 6.615-4.808 2-10.808 2t-10.808-2q-4.807-2-9.423-6.615L269.847-424.77q-6.692-6.692-6.885-15.807-.192-9.115 6.885-16.192t15.999-7.077q8.923 0 16 7.077L480-278.23Zm0-248.769 178.154-178.539q6.692-6.692 15.807-6.692t16.192 6.692q7.077 7.077 7.077 16t-7.077 15.999L500.231-483.616q-4.616 4.615-9.423 6.808Q486-474.616 480-474.616t-10.808-2.192q-4.807-2.193-9.423-6.808L269.847-673.539q-6.692-6.692-6.885-15.807-.192-9.115 6.885-16.192t15.999-7.077q8.923 0 16 7.077L480-526.999Z"></path>
</symbol>

<symbol id="double_arrow_left" viewBox="239.62 -697.66 483.69 434.27" fill="currentColor">
<path d="m292-480.615 178.538 178.154q6.692 6.692 6.692 15.807t-6.692 16.192q-7.077 7.077-15.999 7.077-8.923 0-16-7.077L248.616-460.385Q244.001-465 241.809-470q-2.193-5-2.193-10.615 0-6 2.193-10.808 2.192-4.808 6.807-9.423l189.923-189.923q6.692-6.692 15.807-6.884 9.115-.192 16.192 6.884 7.077 6.693 7.077 15.808t-7.077 15.807L292-480.615Zm246.076 0 178.539 178.154q6.692 6.692 6.692 15.807t-6.692 16.192q-7.077 7.077-16 7.077t-16-7.077L494.693-460.385q-5-4.615-7-9.615t-2-10.615q0-6 2-10.808t7-9.423l189.922-189.923q6.692-6.692 15.808-6.884 9.115-.192 16.192 6.884 6.692 6.693 6.692 15.808t-6.692 15.807L538.076-480.615Z"></path>
</symbol>

<symbol id="double_arrow_right" viewBox="237.31 -697.84 483.69 434.07" fill="currentColor">
<path d="M422.539-480.615 244.385-659.154q-6.692-6.692-6.884-15.807-.192-9.115 6.884-15.808 7.077-7.076 16-7.076t16 7.076l189.922 189.923q4.615 4.615 6.615 9.423t2 10.808q0 5.615-2 10.615t-6.615 9.615L276.385-270.462q-6.692 6.692-16 6.692-9.307 0-16-6.692-7.076-7.077-7.076-16t7.076-15.999l178.154-178.154Zm246.077 0L490.462-659.154q-7.077-6.692-7.077-15.807t7.077-15.808q6.692-7.076 15.615-7.076t15.999 7.076l190.308 189.923q4.615 4.615 6.615 9.423t2 10.808q0 5.615-2 10.615t-6.615 9.615L522.076-270.462q-6.692 6.692-15.807 6.692t-15.807-6.692q-7.077-7.077-7.077-16t7.077-15.999l178.154-178.154Z"></path>
</symbol>

<symbol id="double_arrow_up" viewBox="262.77 -734.92 434.27 487.54" fill="currentColor">
<path d="M480-433.001 301.846-254.462q-6.692 6.692-15.807 6.692t-16.192-6.692q-7.077-7.077-7.077-16t7.077-15.999l189.922-189.923q4.616-4.615 9.423-6.808Q474-485.384 480-485.384t10.808 2.192q4.807 2.193 9.423 6.808l189.922 189.923q6.692 6.692 6.885 15.807.192 9.115-6.885 16.192t-15.999 7.077q-8.923 0-16-7.077L480-433.001Zm0-249.538L301.846-504q-6.692 6.692-15.807 6.884-9.115.192-16.192-6.884-7.077-7.077-7.077-16t7.077-16l189.922-189.922q4.616-4.615 9.423-6.808Q474-734.922 480-734.922t10.808 2.192q4.807 2.193 9.423 6.808L690.153-536q6.692 6.693 6.885 15.808.192 9.115-6.885 16.192-7.077 7.076-15.999 7.076-8.923 0-16-7.076L480-682.539Z"></path>
</symbol>

<symbol id="arrow_down" viewBox="263.27 -607.69 433.35 238.23" fill="currentColor">
<path d="M480-369.463q-6 0-10.808-2-4.807-2-9.423-6.615L269.847-568q-6.692-6.693-6.577-16.115.115-9.423 7.192-16.5t16.307-7.077q9.231 0 16.308 7.077L480-423.076l177.539-177.539q6.692-6.692 15.807-6.577 9.115.116 16.192 7.192 7.077 7.077 7.077 16.308 0 9.23-7.077 16.307L500.231-378.078q-4.616 4.615-9.423 6.615-4.808 2-10.808 2Z"></path>
</symbol>

<symbol id="arrow_left" viewBox="345.46 -698.66 238.84 435.27" fill="currentColor">
<path d="m399.076-480.615 178.539 178.154q6.692 6.692 6.384 15.807-.307 9.115-7.384 16.192t-16.307 7.077q-9.231 0-16.308-7.077L354.078-460.385Q349.463-465 347.463-470t-2-10.615q0-6 2-10.808t6.615-9.423l190.538-190.923q6.692-6.692 16.307-6.884 9.615-.192 16.692 6.884 6.692 7.077 6.692 16.5t-6.692 16.115L399.076-480.615Z"></path>
</symbol>

<symbol id="arrow_right" viewBox="351.99 -697.84 238.93 434.58" fill="currentColor">
<path d="M536.924-480.615 358.77-659.154q-7.077-6.692-6.769-15.807.307-9.115 7.384-15.808 7.077-7.076 16.307-7.076 9.231 0 16.308 7.076l189.922 189.923q4.615 4.615 6.808 9.423 2.192 4.808 2.192 10.808 0 5.615-2.192 10.615-2.193 5-6.808 9.615L391.384-269.847q-6.692 6.692-15.807 6.577-9.115-.115-16.192-7.192t-7.077-16.307q0-9.231 7.077-16.308l177.539-177.538Z"></path>
</symbol>

<symbol id="arrow_up" viewBox="263.39 -614.54 433.66 237.73" fill="currentColor">
<path d="M480-560.924 302.461-383.385q-6.692 6.692-15.807 6.577-9.115-.116-16.192-7.192-7.077-7.077-7.077-16.308 0-9.23 7.077-16.307l189.307-189.307q8.616-8.615 20.231-8.615 11.615 0 20.231 8.615L690.153-416q6.692 6.693 6.885 15.808.192 9.115-6.885 16.192-7.077 7.076-16.307 7.076-9.231 0-16.307-7.076L480-560.924Z"></path>
</symbol>



</svg>