<svg aria-hidden="true" style="position: absolute; width: 0px; height: 0px; overflow: hidden;" version="1.1" xmlns="http://www.w3.org/2000/svg" xmlns:xlink="http://www.w3.org/1999/xlink">

<symbol id="related_fields" viewBox="0 0 64 64">
  <g>
    <path
       style="fill:currentColor;fill-opacity:1;stroke-width:0.99999994"
       d="m 19.999999,10 a 10,10 0 0 1 -10,10 A 10,10 0 0 1 -9.5367432e-7,10 10,10 0 0 1 9.999999,0 a 10,10 0 0 1 10,10 z"
       id="circle2-1" />
    <path
       style="fill:currentColor;fill-opacity:1;stroke:currentColor;stroke-width:2.99999976;stroke-miterlimit:4;stroke-dasharray:none;stroke-opacity:1"
       d="M 4.0743632,6.1612139 36.982071,30.234137"
       id="line4-2" />
    <path
       style="fill:currentColor;fill-opacity:1;stroke-width:1"
       d="m 47.99884,30.548716 a 10,10 0 0 1 -10,10 10,10 0 0 1 -10,-10 10,10 0 0 1 10,-10 10,10 0 0 1 10,10 z"
       id="circle6-7" />
    <path
       style="stroke:currentColor;stroke-width:5.99999952;stroke-miterlimit:4;stroke-dasharray:none;stroke-opacity:1"
       d="M 27.874136,56.514423 H 59.432808"
       id="line8-3-0" />
    <path
       style="fill:currentColor;fill-opacity:1;stroke:currentColor;stroke-width:5.99999952;stroke-miterlimit:4;stroke-dasharray:none;stroke-opacity:1"
       d="M 27.874136,46.376575 H 59.432808"
       id="line8-3-6-3" />
  </g>
</symbol>

<symbol id="robot" viewBox="120 -840 720 720" fill="currentColor" >
<path d="M180-120q-24.75 0-42.375-17.625T120-180v-420q0-100 70-170t170-70h240q100 0 170 70t70 170v420q0 24.75-17.625 42.375T780-120H180Zm0-60h600v-420q0-75-52.5-127.5T600-780H360q-75 0-127.5 52.5T180-600v420Zm179.911-310Q331-490 310.5-510.589q-20.5-20.588-20.5-49.5Q290-589 310.589-609.5q20.588-20.5 49.5-20.5Q389-630 409.5-609.411q20.5 20.588 20.5 49.5Q430-531 409.411-510.5q-20.588 20.5-49.5 20.5Zm240 0Q571-490 550.5-510.589q-20.5-20.588-20.5-49.5Q530-589 550.589-609.5q20.588-20.5 49.5-20.5Q629-630 649.5-609.411q20.5 20.588 20.5 49.5Q670-531 649.411-510.5q-20.588 20.5-49.5 20.5ZM290-180v-110q0-24.75 17.625-42.375T350-350h260q24.75 0 42.375 17.625T670-290v110h-60v-110H510v110h-60v-110H350v110h-60Zm-110 0h600-600Z"></path>
</symbol>


<symbol id="robot2" viewBox="0 0 512 512">
<g>
	<rect x="142.067" y="188.198" fill="currentColor" width="227.858" height="215.642"></rect>
	<rect x="159.236" y="417.467" fill="currentColor" width="67.948" height="94.533"></rect>
	<rect x="284.817" y="417.467" fill="currentColor" width="67.939" height="94.533"></rect>
	<path fill="currentColor" d="M127.864,188.198h-17.579c-27.815,0-50.362,22.547-50.362,50.361v118.508h67.94V188.198z"></path>
	<path fill="currentColor" d="M114.687,377.618c-5.923-4.006-13.123-6.356-20.789-6.349c-5.11,0-10.023,1.041-14.47,2.926
		c-6.68,2.824-12.343,7.524-16.349,13.454c-4.006,5.923-6.356,13.123-6.348,20.788c-0.008,7.682,2.35,14.889,6.364,20.812
		c4.022,5.931,9.692,10.639,16.388,13.454l6.758-16.056c-3.533-1.491-6.576-4.006-8.714-7.161
		c-2.137-3.162-3.368-6.924-3.376-11.048c0-2.752,0.552-5.323,1.546-7.681c1.491-3.533,4.006-6.57,7.168-8.698
		c3.163-2.129,6.909-3.36,11.033-3.367c2.753,0,5.324,0.552,7.682,1.554c3.533,1.482,6.57,4.006,8.699,7.16
		c2.128,3.162,3.359,6.908,3.367,11.033c-0.008,4.124-1.246,7.886-3.375,11.048c-2.138,3.155-5.182,5.67-8.714,7.161l6.758,16.056
		c6.695-2.815,12.366-7.523,16.38-13.454c4.022-5.922,6.38-13.13,6.372-20.812c0-5.11-1.041-10.016-2.926-14.471
		C125.317,387.286,120.616,381.624,114.687,377.618z"></path>
	<path fill="currentColor" d="M452.068,238.559c0-27.814-22.547-50.361-50.361-50.361h-17.579v168.869h67.94V238.559z"></path>
	<path fill="currentColor" d="M452.345,393.966c-2.831-6.68-7.531-12.342-13.462-16.348c-5.914-4.006-13.114-6.356-20.781-6.349
		c-5.11,0-10.023,1.041-14.471,2.926c-6.687,2.824-12.342,7.524-16.348,13.454c-4.006,5.923-6.356,13.123-6.356,20.788
		c0,7.682,2.358,14.889,6.372,20.812c4.014,5.931,9.692,10.639,16.388,13.454l6.758-16.056c-3.541-1.491-6.578-4.006-8.714-7.161
		c-2.138-3.162-3.375-6.924-3.375-11.048c0-2.752,0.552-5.323,1.546-7.681c1.491-3.533,4.006-6.57,7.16-8.698
		c3.162-2.129,6.917-3.36,11.041-3.367c2.745,0,5.324,0.552,7.682,1.554c3.533,1.482,6.561,4.006,8.699,7.16
		c2.129,3.162,3.36,6.908,3.367,11.033c-0.007,4.124-1.246,7.886-3.375,11.048c-2.138,3.155-5.181,5.67-8.722,7.161l6.766,16.056
		c6.696-2.815,12.365-7.523,16.38-13.454c4.014-5.922,6.38-13.13,6.372-20.812C455.27,403.328,454.229,398.422,452.345,393.966z"></path>
	<path fill="currentColor" d="M256,0c-62.924,0-113.933,53.012-113.933,118.389v57.026h227.858v-57.026C369.925,53.012,318.917,0,256,0z
		 M301.551,146.346h-92.924c-18.604,0-33.69-15.079-33.69-33.682s15.087-33.682,33.69-33.682h92.924
		c18.604,0,33.682,15.078,33.682,33.682S320.155,146.346,301.551,146.346z"></path>
	<path fill="currentColor" d="M217.026,95.637c-9.4,0-17.027,7.626-17.027,17.026c0,9.401,7.627,17.027,17.027,17.027
		c9.409,0,17.026-7.626,17.026-17.027C234.053,103.263,226.435,95.637,217.026,95.637z"></path>
	<path fill="currentColor" d="M293.689,104.533c-4.488,0-8.123,3.643-8.123,8.13s3.636,8.13,8.123,8.13c4.495,0,8.13-3.643,8.13-8.13
		S298.183,104.533,293.689,104.533z"></path>
</g>
</symbol>

<symbol id="brain_network" viewBox="0 0 512 512">
<g>
	<path fill="currentColor" d="M313.933,93.647c-12.9,0-23.335,10.452-23.335,23.335c0,2.314,0.352,4.522,0.96,6.626l-31.098,23.24
		c-5.473-4.37-12.388-6.994-19.926-6.994c-3.617,0-7.075,0.624-10.324,1.736l-25.272-38.229c1.872-3.001,2.993-6.546,2.993-10.355
		c0-10.788-8.755-19.543-19.543-19.543c-10.787,0-19.526,8.755-19.526,19.543c0,10.795,8.739,19.542,19.526,19.542
		c1.041,0,2.065-0.104,3.057-0.272l25.304,38.236c-2.753,3.073-4.914,6.674-6.321,10.644l-44.896-3.802
		c-2.704-11.388-12.916-19.87-25.128-19.87c-14.277,0-25.849,11.572-25.849,25.848s11.572,25.857,25.849,25.857
		c10.692,0,19.846-6.483,23.784-15.726l44.878,3.802c1.281,7.514,5.186,14.124,10.74,18.862l-10.996,22.792
		c-0.736-0.072-1.472-0.112-2.24-0.112c-12.884,0-23.336,10.443-23.336,23.336c0,12.892,10.452,23.343,23.336,23.343
		c12.9,0,23.352-10.451,23.352-23.343c0-6.29-2.497-11.988-6.546-16.19l10.996-22.784c1.985,0.393,4.05,0.616,6.162,0.616
		c9.715,0,18.406-4.353,24.264-11.196l27.737,13.469c0.08,9.971,8.178,18.037,18.182,18.037c10.035,0,18.182-8.146,18.182-18.198
		c0-10.035-8.147-18.173-18.182-18.173c-4.193,0-8.034,1.416-11.107,3.801l-27.737-13.476c0.4-2.017,0.624-4.097,0.624-6.234
		c0-4.249-0.848-8.306-2.353-12.02l31.098-23.239c3.665,2.377,8.002,3.77,12.692,3.77c12.9,0,23.352-10.452,23.352-23.344
		C337.285,104.099,326.833,93.647,313.933,93.647z"></path>
	<path fill="currentColor" d="M476.962,278.732l-33.787-71.655v-0.936C443.175,92.479,350.681,0,237.012,0
		C123.343,0,30.848,92.479,30.848,206.14c0,51.112,15.125,95.92,47.472,140.222v70.903c0,17.742,10.531,33.667,26.856,40.581
		l1.345,0.568l1.392,0.44l162.821,50.312c4.978,1.88,10.196,2.833,15.541,2.833c8.66,0,17.062-2.529,24.297-7.306
		c12.371-8.195,19.766-21.926,19.766-36.756v-39.517h61.588c24.312,0,44.078-19.766,44.078-44.062v-37.284l20.359-9.884
		C477.987,326.667,487.222,300.443,476.962,278.732z M443.768,311.246l-28.026,13.605c-5.25,2.553-8.578,7.874-8.578,13.716v45.791
		c0,8.403-6.819,15.221-15.237,15.221h-75.208c-8.403,0-15.222,6.842-15.222,15.244v53.114c0,5.098-2.561,9.876-6.834,12.7
		c-2.529,1.664-5.442,2.521-8.388,2.521c-2.016,0-4.049-0.4-5.97-1.216l-163.878-50.649c-5.634-2.384-9.267-7.914-9.267-14.028
		v-80.546c-33.963-43.655-47.472-84.876-47.472-130.579c0-97.904,79.386-177.298,177.322-177.298
		c97.92,0,177.322,79.394,177.322,177.298c0,2.361-0.096,4.69-0.192,7.018l36.748,77.89
		C454.443,298.594,451.274,307.598,443.768,311.246z"></path>
</g>
</symbol>

</svg>
