<svg xmlns="http://www.w3.org/2000/svg">
    <symbol id="icon_config" viewBox="0 0 22 22">
        <title>icon_config</title> <g id="Layer_12" data-name="Layer 12"> <path class="svgIcon" d="M18.83,11.78V10.22l-1.67-.34a6.18,6.18,0,0,0-1-2.45L17.09,6,16,4.91l-1.42.94a6.18,6.18,0,0,0-2.45-1l-.34-1.67H10.22L9.88,4.84a6.18,6.18,0,0,0-2.45,1L6,4.91,4.91,6l.94,1.42a6.18,6.18,0,0,0-1,2.45l-1.67.34v1.56l1.67.34a6.18,6.18,0,0,0,1,2.45L4.91,16,6,17.09l1.42-.94a6.18,6.18,0,0,0,2.45,1l.34,1.67h1.56l.34-1.67a6.18,6.18,0,0,0,2.45-1l1.42.94,1.1-1.1-.94-1.42a6.18,6.18,0,0,0,1-2.45Z"/> <circle class="svgIcon" cx="11" cy="11" r="3.13"/> </g> 
    </symbol>
    <symbol id="icon_datepicker" viewBox="0 0 22 22">
        <title>icon_datepicker</title> <g id="Layer_3" data-name="Layer 3"> <rect class="svgIcon" x="2.47" y="4.54" width="17.03" height="14.93" rx="3" ry="3"/> <line class="svgIcon" x1="6.98" y1="2.15" x2="6.98" y2="6.3"/> <line class="svgIcon" x1="15.02" y1="2.13" x2="15.02" y2="6.3"/> <line class="svgIcon" x1="14.57" y1="15.02" x2="15.42" y2="15.02"/> <line class="svgIcon" x1="10.59" y1="15.02" x2="11.44" y2="15.02"/> <line class="svgIcon" x1="6.58" y1="15.03" x2="7.43" y2="15.03"/> <line class="svgIcon" x1="14.57" y1="12.02" x2="15.42" y2="12.02"/> <line class="svgIcon" x1="10.59" y1="12.02" x2="11.44" y2="12.02"/> <line class="svgIcon" x1="6.58" y1="12.03" x2="7.43" y2="12.03"/> <line class="svgIcon" x1="14.57" y1="9.02" x2="15.42" y2="9.02"/> <line class="svgIcon" x1="10.59" y1="9.02" x2="11.44" y2="9.02"/> <line class="svgIcon" x1="6.58" y1="9.03" x2="7.43" y2="9.03"/> </g> 
    </symbol>
    <symbol id="icon_error" viewBox="0 0 16 16">
        <title>icon_error</title> <g id="Layer_6" data-name="Layer 6"> <circle class="svgIcon" cx="8" cy="11" r="0.38"/> <circle class="svgIcon" cx="8" cy="8" r="7"/> <line class="svgIcon" x1="8" y1="5" x2="8" y2="8.71"/> </g> 
    </symbol>
    <symbol id="icon_export" viewBox="0 0 26 28">
        <title>icon_export</title> <line class="svgIcon" x1="20.5" y1="14" x2="10.5" y2="14"/> <line class="svgIcon" x1="15.5" y1="19" x2="20.5" y2="14"/> <line class="svgIcon" x1="15.5" y1="9" x2="20.5" y2="14"/> <polyline class="cls-2" points="20 20.14 20 22.97 6 22.97 6 5 20 5 20 6.89"/> 
    </symbol>
    <symbol id="icon_form_decrease" viewBox="0 0 16 16">
        <title>icon_form_decrease</title> <g id="Layer_12" data-name="Layer 12"> <polyline class="svgIcon" points="12 6 8 10 4 6"/> </g> 
    </symbol>
    <symbol id="icon_form_dropdown" viewBox="0 0 16 16">
        <!--<title>icon_form_dropdown</title>--> 
        <g id="Layer_12" data-name="Layer 12"> <polyline class="svgIcon" points="12 4 8 8 4 4"/> </g> 
    </symbol>
    <symbol id="icon_form_increase" viewBox="0 0 16 16">
        <title>icon_form_increase</title> <g id="Layer_12" data-name="Layer 12"> <polyline class="svgIcon" points="4 10 8 6 12 10"/> </g> 
    </symbol>
    <symbol id="icon_globe" viewBox="0 0 26 26">
        <title>icon_globe</title> <g id="Layer_12" data-name="Layer 12"> <circle class="svgIcon" cx="13" cy="13" r="8"/> <ellipse class="svgIcon" cx="13" cy="13" rx="4.57" ry="8"/> <line class="svgIcon" x1="13" y1="5" x2="13" y2="21"/> <line class="svgIcon" x1="21" y1="13" x2="5" y2="13"/> </g> 
    </symbol>
    <symbol id="icon_home" viewBox="0 0 26 26">
        <title>icon_home</title> <g id="Layer_12" data-name="Layer 12"> <polyline class="svgIcon" points="18.5 8.5 13.04 4.02 3.5 12.5 6.5 12.5 6.5 21.5 10.42 21.5 10.5 15.5 15.5 15.5 15.5 21.5 19.5 21.5 19.5 12.5 22.5 12.5 18.5 8.5"/> </g> 
    </symbol>
    <symbol id="icon_infomodel_overview" viewBox="0 0 26 26">
        <title>icon_infomodel_overview</title> <g id="Layer_10" data-name="Layer 10"> <line class="svgIcon" x1="4" y1="20" x2="19" y2="20"/> <line class="svgIcon" x1="4" y1="10" x2="12" y2="10"/> <circle class="svgIcon" cx="16.5" cy="12.5" r="4.5"/> <line class="svgIcon" x1="19.92" y1="15.92" x2="24.5" y2="20.5"/> <line class="svgIcon" x1="4" y1="5" x2="19" y2="5"/> <line class="svgIcon" x1="4" y1="15" x2="12" y2="15"/> </g> 
    </symbol>
    <symbol id="icon_inherited_node" viewBox="0 0 16 16">
        <title>icon_inherited_node</title> <g id="Layer_12" data-name="Layer 12"> <line class="svgIcon" x1="10" y1="11" x2="6" y2="11"/> <line class="svgIcon" x1="8" y1="5" x2="8" y2="11"/> <line class="svgIcon" x1="10" y1="5" x2="6" y2="5"/> </g> 
    </symbol>
    <symbol id="icon_listgrid_openerclosed" viewBox="0 0 16 16">
        <title>icon_listgrid_openerclosed</title> <polyline class="svgIcon" points="5 0.93 12.07 8 5 15.07"/> 
    </symbol>
    <symbol id="icon_listgrid_openeropened" viewBox="0 0 16 16">
        <title>icon_listgrid_openeropened</title> <polyline class="svgIcon" points="11 3 11 13 1 13"/> 
    </symbol>
    <symbol id="icon_login_dropdown" viewBox="0 0 20 20">
        <title>icon_login_dropdown</title> <g id="Layer_12" data-name="Layer 12"> <polyline class="svgIcon" points="18 6.5 10 14.5 2 6.5"/> </g> 
    </symbol>
    <symbol id="icon_login_mail" viewBox="0 0 16 16">
        <title>icon_login_mail</title> <polyline class="svgIcon" points="1.5 3.5 1.5 12.5 14.5 12.5 14.5 3.5 8.04 10 1.5 3.5 14.5 3.5"/> <line class="svgIcon" x1="6" y1="8" x2="2" y2="12"/> <line class="svgIcon" x1="10" y1="8" x2="14" y2="12"/> 
    </symbol>
    <symbol id="icon_login_password" viewBox="0 0 16 16">
        <title>icon_login_password</title> <rect class="svgIcon" x="3.5" y="6.5" width="9" height="7"/> <path class="svgIcon" d="M5.47,5a2.58,2.58,0,0,1,5.15,0"/> <line class="svgIcon" x1="10.5" y1="4.97" x2="10.5" y2="6.53"/> <line class="svgIcon" x1="5.5" y1="4.94" x2="5.5" y2="6.5"/> 
    </symbol>
    <symbol id="icon_overridden_node" viewBox="0 0 16 16">
        <title>icon_overridden_node</title> <g id="Layer_12" data-name="Layer 12"> <rect class="svgIcon" x="6" y="5" width="4" height="6" rx="1" ry="1"/> </g> 
    </symbol>
    <symbol id="icon_overview_search" viewBox="0 0 26 26">
        <title>icon_overview_search</title> <g id="Layer_10" data-name="Layer 10"> <circle class="svgIcon" cx="11.36" cy="12.36" r="5.98"/> <line class="svgIcon" x1="15.7" y1="16.7" x2="20.75" y2="21.75"/> </g> 
    </symbol>
    <symbol id="icon_overview_tableview" viewBox="0 0 26 26">
        <title>icon_overview_tableview</title> <g id="Layer_12" data-name="Layer 12"> <line class="svgIcon" x1="4" y1="4" x2="22" y2="4"/> <line class="svgIcon" x1="4" y1="10" x2="22" y2="10"/> <line class="svgIcon" x1="4" y1="16" x2="22" y2="16"/> <line class="svgIcon" x1="4" y1="22" x2="22" y2="22"/> </g> 
    </symbol>
    <symbol id="icon_overview_tileview" viewBox="0 0 26 26">
        <title>icon_overview_tileview</title> <g id="Layer_12" data-name="Layer 12"> <rect class="svgIcon" x="4" y="4" width="7" height="7"/> <rect class="svgIcon" x="15" y="4" width="7" height="7"/> <rect class="svgIcon" x="4" y="15" width="7" height="7"/> <rect class="svgIcon" x="15" y="15" width="7" height="7"/> </g> 
    </symbol>
    <symbol id="icon_overview_vizview" viewBox="0 0 26 26">
        <title>icon_overview_vizview</title> <g id="Layer_12" data-name="Layer 12"> <rect class="svgIcon" x="4" y="4" width="6" height="11"/> <rect class="svgIcon" x="16" y="6" width="6" height="6"/> <rect class="svgIcon" x="16" y="16" width="6" height="6"/> <polyline class="cls-2" points="7 15 7 19 16 19"/> <line class="svgIcon" x1="11" y1="9" x2="16" y2="9"/> </g> 
    </symbol>
    <symbol id="icon_preview" viewBox="0 0 26 26">
        <title>icon_preview</title> <g id="Layer_12" data-name="Layer 12"> <ellipse class="svgIcon" cx="13" cy="13" rx="10" ry="6"/> <circle class="svgIcon" cx="13" cy="13" r="3.59"/> </g> 
    </symbol>
    <symbol id="icon_rollover_add" viewBox="0 0 16 16">
        <title>icon_rollover_add</title> <line class="svgIcon" x1="8" y1="2" x2="8" y2="14"/> <line class="svgIcon" x1="2" y1="8" x2="14" y2="8"/> 
    </symbol>
    <symbol id="icon_rollover_cancel" viewBox="0 0 16 16">
        <title>icon_rollover_cancel</title> <line class="svgIcon" x1="2" y1="8" x2="14" y2="8"/> <line class="svgIcon" x1="8" y1="2" x2="2" y2="8"/> <line class="svgIcon" x1="8" y1="14" x2="2" y2="8"/> 
    </symbol>
    <symbol id="icon_rollover_collapse" viewBox="0 0 16 16">
        <title>icon_rollover_collapse</title> <g id="Layer_15" data-name="Layer 15"> <line class="svgIcon" x1="14" y1="2" x2="2" y2="2"/> <polyline class="svgIcon" points="8 14.38 8 5.14 2.21 10.91"/> <line class="svgIcon" x1="8" y1="5.14" x2="13.8" y2="10.99"/> </g> 
    </symbol>
    <symbol id="icon_rollover_deps" viewBox="0 0 16 16">
        <title>icon_rollover_deps</title> <g id="Layer_13" data-name="Layer 13"> <path class="svgIcon" d="M12,7a1,1,0,1,1-1,1A1,1,0,0,1,12,7Z"/> <path class="svgIcon" d="M4,2A1,1,0,1,1,3,3,1,1,0,0,1,4,2Z"/> <path class="svgIcon" d="M4,12a1,1,0,1,1-1,1A1,1,0,0,1,4,12Z"/> <polyline class="svgIcon" points="4 3 12 8 4 13"/> </g> 
    </symbol>
    <symbol id="icon_rollover_edit" viewBox="0 0 16 16">
        <title>icon_rollover_edit</title> <g id="Layer_11" data-name="Layer 11"> <polyline class="svgIcon" points="5.24 1.76 13.91 10.44 13.91 13.91 10.44 13.91 1.76 5.24 5.24 1.76"/> </g> 
    </symbol>
    <symbol id="icon_rollover_remove" viewBox="0 0 16 16">
        <title>icon_rollover_remove</title> <g id="Layer_12" data-name="Layer 12"> <line class="svgIcon" x1="2" y1="2" x2="14" y2="14"/> <line class="svgIcon" x1="2" y1="14" x2="14" y2="2"/> </g> 
    </symbol>
    <symbol id="icon_rollover_revert" viewBox="0 0 16 16">
        <title>icon_rollover_revert</title> <g id="Layer_14" data-name="Layer 14"> <path class="svgIcon" d="M2.56,13H8.14C11.21,13,13,11.38,13,8.5S11.18,4,8.14,4H5"/> <path class="cls-2" d="M6.5,6l-4-1.95,4-2"/> </g> 
    </symbol>
    <symbol id="icon_rollover_save" viewBox="0 0 16 16">
        <title>icon_rollover_save</title> <g id="Layer_15" data-name="Layer 15"> <polyline class="svgIcon" points="2 10.13 2 14 14 14 14 10.13"/> <polyline class="svgIcon" points="8 1.13 8 10.4 13.79 4.6"/> <line class="svgIcon" x1="8" y1="10.4" x2="2.2" y2="4.6"/> </g> 
    </symbol>
    <symbol id="icon_rules_add" viewBox="0 0 16 16">
        <title>icon_rules_add</title> <g id="Layer_12" data-name="Layer 12"> <circle class="svgIcon" cx="8" cy="8" r="7"/> <line class="svgIcon" x1="8" y1="5" x2="8" y2="11"/> <line class="svgIcon" x1="5" y1="8" x2="11" y2="8"/> </g> 
    </symbol>
    <symbol id="icon_rules_node" viewBox="0 0 16 16">
        <title>icon_rules_node</title> <g id="Layer_12" data-name="Layer 12"> <circle class="svgIcon" cx="8" cy="8" r="3"/> </g> 
    </symbol>
    <symbol id="icon_rules_openerclosed" viewBox="0 0 16 16">
        <title>icon_rules_openerclosed</title> <g id="Layer_12" data-name="Layer 12"> <circle class="svgIcon" cx="8" cy="8" r="7"/> <polyline class="cls-2" points="7 5 10 8 7 11"/> </g> 
    </symbol>
    <symbol id="icon_rules_openeropened" viewBox="0 0 16 16">
        <title>icon_rules_openeropened</title> <g id="Layer_12" data-name="Layer 12"> <circle class="svgIcon" cx="8" cy="8" r="7"/> <polyline class="cls-2" points="11 7 8 10 5 7"/> </g> 
    </symbol>
    <symbol id="icon_scrollbar_end" viewBox="0 0 16 16">
        <title>icon_scrollbar_end</title> <g id="Layer_12" data-name="Layer 12"> <polyline class="svgIcon" points="12 6 8 10 4 6"/> </g> 
    </symbol>
    <symbol id="icon_tab_close" viewBox="0 0 16 16">
        <title>icon_tab_close</title> <line class="svgIcon" x1="4" y1="4" x2="12" y2="12"/> <line class="svgIcon" x1="12" y1="4" x2="4" y2="12"/> 
    </symbol>
    <symbol id="icon_toolbar_goto" viewBox="0 0 16 16">
        <title>icon_toolbar_goto</title> <line class="svgIcon" x1="13" y1="8" x2="3" y2="8"/> <line class="svgIcon" x1="8" y1="13" x2="13" y2="8"/> <line class="svgIcon" x1="8" y1="3" x2="13" y2="8"/> 
    </symbol>
    <symbol id="icon_type_boolean" viewBox="0 0 22 22">
        <title>icon_type_boolean</title> <g id="Layer_8" data-name="Layer 8"> <polyline class="svgIcon" points="3.24 6.07 5.51 9.09 10.01 2.69"/> <line class="svgIcon" x1="18.47" y1="3.54" x2="3.24" y2="18.77"/> <line class="svgIcon" x1="13.4" y1="13.69" x2="18.47" y2="18.77"/> <line class="svgIcon" x1="18.47" y1="13.69" x2="13.4" y2="18.77"/> </g> 
    </symbol>
    <symbol id="icon_type_date" viewBox="0 0 22 22">
        <title>icon_type_date</title> <g id="Layer_3" data-name="Layer 3"> <rect class="cls-1-a" x="2.47" y="4.54" width="17.03" height="14.93" rx="3" ry="3"/> <line class="cls-1-a" x1="6.98" y1="2.15" x2="6.98" y2="6.3"/> <line class="cls-1-a" x1="15.02" y1="2.13" x2="15.02" y2="6.3"/> <line class="cls-1-a" x1="14.57" y1="15.02" x2="15.42" y2="15.02"/> <line class="cls-1-a" x1="10.59" y1="15.02" x2="11.44" y2="15.02"/> <line class="cls-1-a" x1="6.58" y1="15.03" x2="7.43" y2="15.03"/> <line class="cls-1-a" x1="14.57" y1="12.02" x2="15.42" y2="12.02"/> <line class="cls-1-a" x1="10.59" y1="12.02" x2="11.44" y2="12.02"/> <line class="cls-1-a" x1="6.58" y1="12.03" x2="7.43" y2="12.03"/> <line class="cls-1-a" x1="14.57" y1="9.02" x2="15.42" y2="9.02"/> <line class="cls-1-a" x1="10.59" y1="9.02" x2="11.44" y2="9.02"/> <line class="cls-1-a" x1="6.58" y1="9.03" x2="7.43" y2="9.03"/> </g> 
    </symbol>
    <symbol id="icon_type_datetime" viewBox="0 0 22 22">
        <title>icon_type_datetime</title> <g id="Layer_2" data-name="Layer 2"> <circle class="svgIcon" cx="14.51" cy="14.38" r="5.92"/> <line class="svgIcon" x1="14.51" y1="14.38" x2="17.05" y2="13.54"/> <line class="svgIcon" x1="11.97" y1="11.84" x2="14.51" y2="14.38"/> <path class="svgIcon" d="M11.33,19.47H5.47a3,3,0,0,1-3-3V7.54a3,3,0,0,1,3-3h11a3,3,0,0,1,3,3v3.65"/> <line class="svgIcon" x1="6.98" y1="2.15" x2="6.98" y2="6.3"/> <line class="svgIcon" x1="15.02" y1="2.13" x2="15.02" y2="6.3"/> <line class="svgIcon" x1="6.58" y1="15.03" x2="7.43" y2="15.03"/> <line class="svgIcon" x1="6.58" y1="12.03" x2="7.43" y2="12.03"/> <line class="svgIcon" x1="10.59" y1="9.02" x2="11.44" y2="9.02"/> <line class="svgIcon" x1="6.58" y1="9.03" x2="7.43" y2="9.03"/> </g> 
    </symbol>
    <symbol id="icon_type_decimal" viewBox="0 0 22 22">
        <title>icon_type_decimal</title> <g id="Layer_4" data-name="Layer 4"> <rect class="svgIcon" x="1.84" y="4.98" width="3.31" height="12.48" rx="1.66" ry="1.66"/> <rect class="svgIcon" x="9.85" y="5.05" width="3.31" height="12.48" rx="1.66" ry="1.66"/> <rect class="svgIcon" x="16.84" y="4.91" width="3.31" height="12.48" rx="1.66" ry="1.66"/> <line class="svgIcon" x1="7.5" y1="16.5" x2="7.5" y2="17.5"/> </g> 
    </symbol>
    <symbol id="icon_type_enumeration" viewBox="0 0 22 22">
        <title>icon_type_enumeration</title> <g id="Layer_6" data-name="Layer 6"> <path class="svgIcon" d="M3,5h9.5"/> <line class="svgIcon" x1="3" y1="11" x2="12.5" y2="11"/> <circle class="svgIcon" cx="17" cy="11" r="0.61"/> <line class="svgIcon" x1="3" y1="17" x2="12.5" y2="17"/> <polyline class="svgIcon" points="15.16 16.23 16.88 18.4 20.24 14.54"/> <circle class="svgIcon" cx="17" cy="5" r="0.61"/> </g> 
    </symbol>
    <symbol id="icon_type_group" viewBox="0 0 22 22">
        <title>icon_type_group</title> <g id="Layer_6" data-name="Layer 6"> <path class="svgIcon" d="M3.54,5H18.46"/> <line class="svgIcon" x1="3.54" y1="11" x2="18.46" y2="11"/> <line class="svgIcon" x1="3.54" y1="17" x2="18.46" y2="17"/> </g> 
    </symbol>
    <symbol id="icon_type_infomodel" viewBox="0 0 22 22">
        <title>icon_type_infomodel</title> <g id="Layer_7" data-name="Layer 7"> <g> <path class="svgIcon" d="M12.69,9.46a2.56,2.56,0,0,1,0,3.59L8.5,17.24a2.54,2.54,0,0,1-3.59,0h0a2.54,2.54,0,0,1,0-3.59L6.1,12.46"/> <path class="svgIcon" d="M9.31,12.54h0A2.56,2.56,0,0,1,9.31,9L13.5,4.76a2.54,2.54,0,0,1,3.59,0h0a2.54,2.54,0,0,1,0,3.59L15.9,9.54"/> </g> </g> 
    </symbol>
    <symbol id="icon_type_integer" viewBox="0 0 22 22">
        <title>icon_type_integer</title> <g id="Layer_5" data-name="Layer 5"> <path class="svgIcon" d="M1.63,7.34c.68-.66,2.49-2.49,2.49-2.49V17.37"/> <path class="svgIcon" d="M8.36,6.57c-.06-2.36,3.51-2.52,3.43.87-.11,4.27-3.54,4.05-3.45,9.92h3.33"/> <path class="svgIcon" d="M15.65,6.24c0-2,3.34-2,3.34,1.14,0,1.29-.81,2.74-3.1,3.66C18.13,11,19,12.62,19,14.63,19,18,15.48,18,15.54,16"/> </g> 
    </symbol>
    <symbol id="icon_type_text" viewBox="0 0 22 22">
        <title>icon_type_text</title> <path class="svgIcon" d="M9.2,4.74s.05,11.14.05,12.47c1.75,0,3.61.68,3.57-3.66,0-3.79-3.42-3-3.42-3"/> <path class="svgIcon" d="M19.58,11.94s-.11-1.53-1.52-1.5c-2,0-2.39,1.42-2.39,3.39,0,1.57,0,3.46,2,3.53A1.66,1.66,0,0,0,19.52,16"/> <g> <path class="svgIcon" d="M2.15,17.24s0-3.24,0-6.66c0-3.21.15-5.89,2-5.89,1.47,0,1.94,2.67,2,5.85s0,6.74,0,6.74"/> <line class="svgIcon" x1="6.16" y1="10.59" x2="2.29" y2="10.6"/> </g> 
    </symbol>
    <symbol id="icon_window_close" viewBox="0 0 14 14">
        <title>icon_window_close</title> <line class="svgIcon" x1="3" y1="3" x2="11" y2="11"/> <line class="svgIcon" x1="11" y1="3" x2="3" y2="11"/> 
    </symbol>
    <symbol id="icon_window_maximize" viewBox="0 0 14 14">
        <title>icon_window_maximize</title> <line class="svgIcon" x1="4" y1="5" x2="10" y2="5"/> <rect class="svgIcon" x="1" y="1" width="12" height="12" rx="2" ry="2"/> 
    </symbol>
    <symbol id="icon_window_minimize" viewBox="0 0 14 14">
        <title>icon_window_minimize</title> <line class="svgIcon" x1="2" y1="7" x2="12" y2="7"/> 
    </symbol>
    <symbol id="green-rings" viewBox="0 0 100 100">
        <g fill="white" stroke="green" stroke-width="5">
           <circle cx="40" cy="40" r="25" />
           <circle cx="60" cy="60" r="25" />
        </g>
    </symbol>
</svg>